<!--?xml version="1.0" encoding="UTF-8"?-->

<svg version="1.1" xmlns="http://www.w3.org/2000/svg" xmlns:xlink="http://www.w3.org/1999/xlink" x="0" y="0" width="1080" height="580" viewBox="0, 0, 1080, 580" style="">
  <g id="Livello_2"></g>
  <g id="Livello_2">
    <path d="M93.12,215.5 L230.806,215.5 C234.207,215.5 236.963,217.892 236.963,220.843 L236.963,360.157 C236.963,363.108 234.207,365.5 230.806,365.5 L93.12,365.5 C89.72,365.5 86.963,363.108 86.963,360.157 L86.963,220.843 C86.963,217.892 89.72,215.5 93.12,215.5 z" fill-opacity="0" stroke="#454545" stroke-width="8" class="bXkxTvfN_0"></path>
    <path d="M847.392,116.468 L985.078,116.468 C988.479,116.468 991.235,118.86 991.235,121.81 L991.235,261.125 C991.235,264.076 988.479,266.468 985.078,266.468 L847.392,266.468 C843.992,266.468 841.235,264.076 841.235,261.125 L841.235,121.81 C841.235,118.86 843.992,116.468 847.392,116.468 z" fill-opacity="0" stroke="#454545" stroke-width="8" class="bXkxTvfN_1"></path>
    <path d="M236.964,290.5 L407.717,290.5" fill-opacity="0" stroke="#454545" stroke-width="8" stroke-linecap="round" class="bXkxTvfN_2"></path>
    <path d="M673.283,314.471 L732.551,314.471" fill-opacity="0" stroke="#454545" stroke-width="8" class="bXkxTvfN_3"></path>
    <path d="M762.413,344.376 L762.413,360.095" fill-opacity="0" stroke="#454545" stroke-width="8" class="bXkxTvfN_4"></path>
    <path d="M673.283,314.042 L673.283,314.042" fill-opacity="0" stroke="#454545" stroke-width="8" class="bXkxTvfN_5"></path>
    <path d="M673.283,367.162 L540.5,443.824 L407.717,367.162 L407.717,213.838 L540.5,137.176 L673.283,213.838 z" fill-opacity="0" stroke="#454545" stroke-width="8" stroke-linejoin="round" stroke-miterlimit="1" class="bXkxTvfN_6"></path>
    <path d="M185.802,332 L199.688,332 L169.161,247.449 L154.981,247.449 L124.454,332 L138.106,332 L145.841,309.149 L178.067,309.149 z M161.778,261.512 L162.13,261.512 L174.728,298.602 L149.181,298.602 z" fill="#454545" class="bXkxTvfN_7"></path>
    <path d="M879.432,231.968 L893.964,231.968 L915.292,199.741 L915.702,199.741 L936.737,231.968 L952.089,231.968 L923.964,190.014 L923.964,189.663 L952.616,147.417 L937.792,147.417 L916.698,180.112 L916.229,180.112 L895.37,147.417 L879.725,147.417 L907.499,189.194 L907.499,189.604 z" fill="#454545" class="bXkxTvfN_8"></path>
    <path d="M847.392,315.096 L985.078,315.096 C988.479,315.096 991.235,317.488 991.235,320.439 L991.235,459.754 C991.235,462.704 988.479,465.096 985.078,465.096 L847.392,465.096 C843.992,465.096 841.235,462.704 841.235,459.754 L841.235,320.439 C841.235,317.488 843.992,315.096 847.392,315.096 z" fill-opacity="0" stroke="#454545" stroke-width="8" class="bXkxTvfN_9"></path>
    <path d="M922.393,430.596 L922.393,395.967 L952.218,346.046 L937.686,346.046 L916.124,383.37 L915.714,383.37 L894.151,346.046 L879.503,346.046 L909.268,395.967 L909.268,430.596 z" fill="#454545" class="bXkxTvfN_10"></path>
    <g id="gears">
      <g>
        <path d="M543.234,315.163 C542.463,313.539 540.52,312.846 538.895,313.617 C536.251,314.872 533.478,315.909 530.655,316.699 C529.474,317.029 528.579,317.994 528.339,319.197 L524.893,336.427 C524.553,338.128 523.047,339.363 521.312,339.363 L511.911,339.363 C510.176,339.363 508.67,338.128 508.33,336.427 L504.884,319.197 C504.643,317.994 503.748,317.029 502.568,316.699 C498.579,315.583 494.73,313.988 491.128,311.959 C490.059,311.357 488.742,311.406 487.722,312.086 L473.1,321.834 C471.657,322.796 469.719,322.604 468.491,321.377 L461.844,314.73 C460.617,313.503 460.426,311.565 461.388,310.121 L471.135,295.499 C471.816,294.479 471.865,293.163 471.263,292.094 C469.233,288.49 467.638,284.641 466.523,280.654 C466.192,279.472 465.227,278.578 464.024,278.337 L446.795,274.891 C445.094,274.551 443.859,273.045 443.859,271.31 L443.859,261.909 C443.859,260.174 445.093,258.669 446.795,258.328 L464.024,254.882 C465.227,254.641 466.192,253.746 466.523,252.566 C467.639,248.577 469.234,244.729 471.263,241.126 C471.865,240.057 471.815,238.741 471.135,237.72 L461.389,223.1 C460.426,221.656 460.618,219.719 461.845,218.491 L468.492,211.844 C469.719,210.617 471.658,210.426 473.101,211.388 L487.723,221.135 C488.743,221.816 490.06,221.865 491.128,221.263 C494.731,219.233 498.58,217.639 502.569,216.522 C503.75,216.192 504.645,215.227 504.885,214.024 L508.331,196.795 C508.671,195.094 510.177,193.859 511.912,193.859 L521.313,193.859 C523.048,193.859 524.553,195.093 524.894,196.795 L528.34,214.024 C528.581,215.227 529.476,216.192 530.656,216.522 C534.645,217.639 538.494,219.233 542.096,221.263 C543.165,221.865 544.482,221.815 545.502,221.135 L560.123,211.388 C561.567,210.425 563.505,210.618 564.732,211.844 L571.379,218.491 C572.606,219.718 572.798,221.656 571.836,223.1 L562.089,237.722 C561.408,238.742 561.359,240.058 561.961,241.127 C563.99,244.73 565.585,248.579 566.701,252.568 C567.032,253.749 567.997,254.643 569.2,254.884 L586.429,258.33 C588.13,258.67 589.365,260.176 589.365,261.911 L589.365,271.312 C589.365,273.047 588.13,274.552 586.429,274.893 L569.2,278.339 C567.997,278.58 567.032,279.475 566.701,280.656 C565.892,283.549 564.823,286.387 563.526,289.091 C562.747,290.713 563.432,292.659 565.054,293.437 C566.675,294.216 568.622,293.531 569.399,291.91 C570.57,289.469 571.576,286.931 572.398,284.343 L587.707,281.282 C592.441,280.334 595.878,276.141 595.878,271.311 L595.878,261.911 C595.878,257.081 592.441,252.888 587.705,251.941 L572.396,248.879 C571.392,245.718 570.12,242.645 568.595,239.704 L577.255,226.713 C579.934,222.695 579.4,217.299 575.985,213.884 L569.338,207.237 C565.922,203.821 560.526,203.288 556.508,205.966 L543.518,214.627 C540.576,213.102 537.503,211.829 534.343,210.825 L531.281,195.517 C530.335,190.782 526.141,187.345 521.312,187.345 L511.911,187.345 C507.082,187.345 502.889,190.782 501.941,195.518 L498.88,210.826 C495.719,211.83 492.646,213.103 489.705,214.628 L476.715,205.968 C472.697,203.289 467.301,203.822 463.885,207.238 L457.238,213.885 C453.823,217.301 453.289,222.696 455.968,226.715 L464.628,239.705 C463.104,242.646 461.831,245.719 460.827,248.88 L445.518,251.942 C440.782,252.889 437.345,257.082 437.345,261.911 L437.345,271.312 C437.345,276.142 440.782,280.334 445.518,281.282 L460.827,284.344 C461.83,287.504 463.103,290.577 464.628,293.518 L455.968,306.509 C453.289,310.528 453.823,315.923 457.238,319.339 L463.885,325.986 C467.301,329.401 472.696,329.935 476.715,327.256 L489.706,318.596 C492.647,320.12 495.719,321.393 498.88,322.398 L501.942,337.706 C502.889,342.441 507.082,345.879 511.912,345.879 L521.312,345.879 C526.142,345.879 530.335,342.441 531.282,337.705 L534.344,322.397 C536.854,321.6 539.318,320.63 541.689,319.504 C543.314,318.732 544.006,316.789 543.234,315.163 z" fill="#454545" class="bXkxTvfN_11"></path>
        <path d="M543.234,315.163 C542.463,313.539 540.52,312.846 538.895,313.617 C536.251,314.872 533.478,315.909 530.655,316.699 C529.474,317.029 528.579,317.994 528.339,319.197 L524.893,336.427 C524.553,338.128 523.047,339.363 521.312,339.363 L511.911,339.363 C510.176,339.363 508.67,338.128 508.33,336.427 L504.884,319.197 C504.643,317.994 503.748,317.029 502.568,316.699 C498.579,315.583 494.73,313.988 491.128,311.959 C490.059,311.357 488.742,311.406 487.722,312.086 L473.1,321.834 C471.657,322.796 469.719,322.604 468.491,321.377 L461.844,314.73 C460.617,313.503 460.426,311.565 461.388,310.121 L471.135,295.499 C471.816,294.479 471.865,293.163 471.263,292.094 C469.233,288.49 467.638,284.641 466.523,280.654 C466.192,279.472 465.227,278.578 464.024,278.337 L446.795,274.891 C445.094,274.551 443.859,273.045 443.859,271.31 L443.859,261.909 C443.859,260.174 445.093,258.669 446.795,258.328 L464.024,254.882 C465.227,254.641 466.192,253.746 466.523,252.566 C467.639,248.577 469.234,244.729 471.263,241.126 C471.865,240.057 471.815,238.741 471.135,237.72 L461.389,223.1 C460.426,221.656 460.618,219.719 461.845,218.491 L468.492,211.844 C469.719,210.617 471.658,210.426 473.101,211.388 L487.723,221.135 C488.743,221.816 490.06,221.865 491.128,221.263 C494.731,219.233 498.58,217.639 502.569,216.522 C503.75,216.192 504.645,215.227 504.885,214.024 L508.331,196.795 C508.671,195.094 510.177,193.859 511.912,193.859 L521.313,193.859 C523.048,193.859 524.553,195.093 524.894,196.795 L528.34,214.024 C528.581,215.227 529.476,216.192 530.656,216.522 C534.645,217.639 538.494,219.233 542.096,221.263 C543.165,221.865 544.482,221.815 545.502,221.135 L560.123,211.388 C561.567,210.425 563.505,210.618 564.732,211.844 L571.379,218.491 C572.606,219.718 572.798,221.656 571.836,223.1 L562.089,237.722 C561.408,238.742 561.359,240.058 561.961,241.127 C563.99,244.73 565.585,248.579 566.701,252.568 C567.032,253.749 567.997,254.643 569.2,254.884 L586.429,258.33 C588.13,258.67 589.365,260.176 589.365,261.911 L589.365,271.312 C589.365,273.047 588.13,274.552 586.429,274.893 L569.2,278.339 C567.997,278.58 567.032,279.475 566.701,280.656 C565.892,283.549 564.823,286.387 563.526,289.091 C562.747,290.713 563.432,292.659 565.054,293.437 C566.675,294.216 568.622,293.531 569.399,291.91 C570.57,289.469 571.576,286.931 572.398,284.343 L587.707,281.282 C592.441,280.334 595.878,276.141 595.878,271.311 L595.878,261.911 C595.878,257.081 592.441,252.888 587.705,251.941 L572.396,248.879 C571.392,245.718 570.12,242.645 568.595,239.704 L577.255,226.713 C579.934,222.695 579.4,217.299 575.985,213.884 L569.338,207.237 C565.922,203.821 560.526,203.288 556.508,205.966 L543.518,214.627 C540.576,213.102 537.503,211.829 534.343,210.825 L531.281,195.517 C530.335,190.782 526.141,187.345 521.312,187.345 L511.911,187.345 C507.082,187.345 502.889,190.782 501.941,195.518 L498.88,210.826 C495.719,211.83 492.646,213.103 489.705,214.628 L476.715,205.968 C472.697,203.289 467.301,203.822 463.885,207.238 L457.238,213.885 C453.823,217.301 453.289,222.696 455.968,226.715 L464.628,239.705 C463.104,242.646 461.831,245.719 460.827,248.88 L445.518,251.942 C440.782,252.889 437.345,257.082 437.345,261.911 L437.345,271.312 C437.345,276.142 440.782,280.334 445.518,281.282 L460.827,284.344 C461.83,287.504 463.103,290.577 464.628,293.518 L455.968,306.509 C453.289,310.528 453.823,315.923 457.238,319.339 L463.885,325.986 C467.301,329.401 472.696,329.935 476.715,327.256 L489.706,318.596 C492.647,320.12 495.719,321.393 498.88,322.398 L501.942,337.706 C502.889,342.441 507.082,345.879 511.912,345.879 L521.312,345.879 C526.142,345.879 530.335,342.441 531.282,337.705 L534.344,322.397 C536.854,321.6 539.318,320.63 541.689,319.504 C543.314,318.732 544.006,316.789 543.234,315.163 z" fill-opacity="0" stroke="#454545" stroke-width="1" class="bXkxTvfN_12"></path>
      </g>
      <g>
        <path d="M544.827,284.712 C545.303,284.956 545.811,285.072 546.311,285.072 C547.494,285.072 548.636,284.425 549.212,283.3 C551.84,278.177 553.229,272.406 553.229,266.612 C553.229,246.421 536.802,229.995 516.611,229.995 C507.006,229.995 497.929,233.686 491.052,240.391 C489.764,241.647 489.738,243.709 490.993,244.997 C492.249,246.285 494.311,246.312 495.599,245.056 C501.252,239.545 508.714,236.51 516.61,236.51 C533.209,236.51 546.713,250.014 546.713,266.612 C546.713,271.445 545.603,276.06 543.415,280.328 C542.594,281.928 543.227,283.891 544.827,284.712 z" fill="#454545" class="bXkxTvfN_13"></path>
        <path d="M544.827,284.712 C545.303,284.956 545.811,285.072 546.311,285.072 C547.494,285.072 548.636,284.425 549.212,283.3 C551.84,278.177 553.229,272.406 553.229,266.612 C553.229,246.421 536.802,229.995 516.611,229.995 C507.006,229.995 497.929,233.686 491.052,240.391 C489.764,241.647 489.738,243.709 490.993,244.997 C492.249,246.285 494.311,246.312 495.599,245.056 C501.252,239.545 508.714,236.51 516.61,236.51 C533.209,236.51 546.713,250.014 546.713,266.612 C546.713,271.445 545.603,276.06 543.415,280.328 C542.594,281.928 543.227,283.891 544.827,284.712 z" fill-opacity="0" stroke="#454545" stroke-width="1" class="bXkxTvfN_14"></path>
      </g>
      <g>
        <path d="M486.119,252.673 C484.418,252.088 482.565,252.992 481.979,254.693 C480.663,258.521 479.995,262.531 479.995,266.612 C479.995,286.803 496.422,303.229 516.613,303.229 C524.378,303.229 531.797,300.829 538.068,296.287 C539.525,295.232 539.851,293.195 538.797,291.738 C537.742,290.281 535.704,289.955 534.247,291.01 C529.094,294.741 522.996,296.713 516.612,296.713 C500.013,296.713 486.51,283.209 486.51,266.611 C486.51,263.253 487.058,259.955 488.139,256.812 C488.724,255.111 487.82,253.258 486.119,252.673 z" fill="#454545" class="bXkxTvfN_15"></path>
        <path d="M486.119,252.673 C484.418,252.088 482.565,252.992 481.979,254.693 C480.663,258.521 479.995,262.531 479.995,266.612 C479.995,286.803 496.422,303.229 516.613,303.229 C524.378,303.229 531.797,300.829 538.068,296.287 C539.525,295.232 539.851,293.195 538.797,291.738 C537.742,290.281 535.704,289.955 534.247,291.01 C529.094,294.741 522.996,296.713 516.612,296.713 C500.013,296.713 486.51,283.209 486.51,266.611 C486.51,263.253 487.058,259.955 488.139,256.812 C488.724,255.111 487.82,253.258 486.119,252.673 z" fill-opacity="0" stroke="#454545" stroke-width="1" class="bXkxTvfN_16"></path>
      </g>
      <g>
        <path d="M637.386,329.713 L627.966,327.83 C627.393,326.122 626.702,324.455 625.901,322.844 L631.23,314.85 C633.285,311.768 632.875,307.629 630.256,305.01 L625.888,300.642 C623.268,298.023 619.13,297.613 616.048,299.668 L608.054,304.997 C606.443,304.196 604.776,303.505 603.068,302.932 L601.184,293.512 C600.458,289.879 597.242,287.243 593.538,287.243 L587.36,287.243 C583.656,287.243 580.44,289.879 579.713,293.512 L577.829,302.932 C576.122,303.506 574.455,304.197 572.844,304.997 L564.85,299.668 C561.768,297.614 557.629,298.023 555.01,300.642 L550.642,305.01 C548.022,307.63 547.613,311.768 549.668,314.85 L554.997,322.844 C553.895,325.059 553.003,327.38 552.336,329.765 C551.851,331.498 552.863,333.295 554.595,333.78 C556.328,334.265 558.125,333.254 558.61,331.521 C559.319,328.986 560.333,326.54 561.622,324.251 C562.224,323.182 562.175,321.865 561.495,320.845 L555.089,311.237 C554.751,310.729 554.818,310.048 555.249,309.617 L559.617,305.249 C560.049,304.818 560.729,304.752 561.237,305.089 L570.845,311.495 C571.865,312.175 573.182,312.224 574.251,311.622 C576.54,310.333 578.986,309.319 581.521,308.61 C582.702,308.279 583.597,307.314 583.837,306.111 L586.102,294.79 C586.221,294.192 586.75,293.758 587.36,293.758 L593.538,293.758 C594.147,293.758 594.676,294.192 594.796,294.79 L597.06,306.112 C597.301,307.315 598.196,308.28 599.376,308.611 C601.912,309.32 604.358,310.334 606.647,311.623 C607.715,312.225 609.032,312.175 610.053,311.495 L619.661,305.09 C620.168,304.752 620.849,304.818 621.28,305.25 L625.648,309.618 C626.079,310.049 626.146,310.73 625.809,311.237 L619.403,320.846 C618.722,321.866 618.673,323.182 619.275,324.251 C620.565,326.541 621.579,328.987 622.288,331.522 C622.618,332.703 623.583,333.598 624.786,333.838 L636.108,336.102 C636.705,336.222 637.139,336.751 637.139,337.361 L637.139,343.538 C637.139,344.148 636.705,344.677 636.108,344.797 L624.785,347.061 C623.582,347.301 622.617,348.197 622.287,349.377 C621.578,351.912 620.564,354.358 619.274,356.647 C618.672,357.716 618.722,359.033 619.402,360.053 L625.808,369.662 C626.146,370.169 626.079,370.85 625.648,371.281 L621.28,375.649 C620.849,376.08 620.168,376.147 619.66,375.809 L610.052,369.404 C609.031,368.723 607.715,368.674 606.646,369.276 C604.357,370.565 601.911,371.579 599.376,372.288 C598.195,372.619 597.3,373.584 597.059,374.787 L594.795,386.108 C594.676,386.706 594.147,387.14 593.537,387.14 L587.359,387.14 C586.75,387.14 586.221,386.706 586.101,386.108 L583.837,374.786 C583.596,373.583 582.701,372.618 581.521,372.288 C578.985,371.578 576.539,370.565 574.25,369.275 C573.181,368.673 571.864,368.723 570.844,369.403 L561.236,375.809 C560.729,376.147 560.048,376.08 559.617,375.648 L555.249,371.28 C554.818,370.849 554.751,370.168 555.088,369.661 L561.494,360.052 C562.174,359.032 562.224,357.716 561.622,356.647 C560.332,354.357 559.318,351.912 558.609,349.376 C558.279,348.195 557.314,347.3 556.111,347.06 L544.789,344.796 C544.192,344.677 543.758,344.147 543.758,343.537 L543.758,337.36 C543.758,336.751 544.192,336.221 544.789,336.101 L545.482,335.963 C547.246,335.61 548.391,333.894 548.037,332.13 C547.684,330.365 545.97,329.223 544.204,329.574 L543.511,329.713 C539.879,330.44 537.242,333.656 537.242,337.36 L537.242,343.538 C537.242,347.242 539.879,350.458 543.511,351.185 L552.931,353.068 C553.505,354.776 554.196,356.443 554.997,358.054 L549.667,366.048 C547.612,369.13 548.022,373.269 550.642,375.888 L555.01,380.256 C557.629,382.875 561.768,383.285 564.85,381.23 L572.843,375.901 C574.455,376.702 576.122,377.393 577.829,377.966 L579.713,387.386 C580.44,391.019 583.656,393.655 587.36,393.655 L593.538,393.655 C597.242,393.655 600.458,391.019 601.185,387.386 L603.069,377.966 C604.776,377.393 606.443,376.701 608.054,375.9 L616.048,381.23 C619.131,383.284 623.269,382.875 625.888,380.255 L630.256,375.888 C632.876,373.268 633.285,369.13 631.23,366.047 L625.901,358.054 C626.702,356.442 627.393,354.775 627.966,353.068 L637.386,351.184 C641.018,350.458 643.655,347.242 643.655,343.537 L643.655,337.36 C643.655,333.656 641.019,330.44 637.386,329.713 z" fill="#454545" class="bXkxTvfN_17"></path>
        <path d="M637.386,329.713 L627.966,327.83 C627.393,326.122 626.702,324.455 625.901,322.844 L631.23,314.85 C633.285,311.768 632.875,307.629 630.256,305.01 L625.888,300.642 C623.268,298.023 619.13,297.613 616.048,299.668 L608.054,304.997 C606.443,304.196 604.776,303.505 603.068,302.932 L601.184,293.512 C600.458,289.879 597.242,287.243 593.538,287.243 L587.36,287.243 C583.656,287.243 580.44,289.879 579.713,293.512 L577.829,302.932 C576.122,303.506 574.455,304.197 572.844,304.997 L564.85,299.668 C561.768,297.614 557.629,298.023 555.01,300.642 L550.642,305.01 C548.022,307.63 547.613,311.768 549.668,314.85 L554.997,322.844 C553.895,325.059 553.003,327.38 552.336,329.765 C551.851,331.498 552.863,333.295 554.595,333.78 C556.328,334.265 558.125,333.254 558.61,331.521 C559.319,328.986 560.333,326.54 561.622,324.251 C562.224,323.182 562.175,321.865 561.495,320.845 L555.089,311.237 C554.751,310.729 554.818,310.048 555.249,309.617 L559.617,305.249 C560.049,304.818 560.729,304.752 561.237,305.089 L570.845,311.495 C571.865,312.175 573.182,312.224 574.251,311.622 C576.54,310.333 578.986,309.319 581.521,308.61 C582.702,308.279 583.597,307.314 583.837,306.111 L586.102,294.79 C586.221,294.192 586.75,293.758 587.36,293.758 L593.538,293.758 C594.147,293.758 594.676,294.192 594.796,294.79 L597.06,306.112 C597.301,307.315 598.196,308.28 599.376,308.611 C601.912,309.32 604.358,310.334 606.647,311.623 C607.715,312.225 609.032,312.175 610.053,311.495 L619.661,305.09 C620.168,304.752 620.849,304.818 621.28,305.25 L625.648,309.618 C626.079,310.049 626.146,310.73 625.809,311.237 L619.403,320.846 C618.722,321.866 618.673,323.182 619.275,324.251 C620.565,326.541 621.579,328.987 622.288,331.522 C622.618,332.703 623.583,333.598 624.786,333.838 L636.108,336.102 C636.705,336.222 637.139,336.751 637.139,337.361 L637.139,343.538 C637.139,344.148 636.705,344.677 636.108,344.797 L624.785,347.061 C623.582,347.301 622.617,348.197 622.287,349.377 C621.578,351.912 620.564,354.358 619.274,356.647 C618.672,357.716 618.722,359.033 619.402,360.053 L625.808,369.662 C626.146,370.169 626.079,370.85 625.648,371.281 L621.28,375.649 C620.849,376.08 620.168,376.147 619.66,375.809 L610.052,369.404 C609.031,368.723 607.715,368.674 606.646,369.276 C604.357,370.565 601.911,371.579 599.376,372.288 C598.195,372.619 597.3,373.584 597.059,374.787 L594.795,386.108 C594.676,386.706 594.147,387.14 593.537,387.14 L587.359,387.14 C586.75,387.14 586.221,386.706 586.101,386.108 L583.837,374.786 C583.596,373.583 582.701,372.618 581.521,372.288 C578.985,371.578 576.539,370.565 574.25,369.275 C573.181,368.673 571.864,368.723 570.844,369.403 L561.236,375.809 C560.729,376.147 560.048,376.08 559.617,375.648 L555.249,371.28 C554.818,370.849 554.751,370.168 555.088,369.661 L561.494,360.052 C562.174,359.032 562.224,357.716 561.622,356.647 C560.332,354.357 559.318,351.912 558.609,349.376 C558.279,348.195 557.314,347.3 556.111,347.06 L544.789,344.796 C544.192,344.677 543.758,344.147 543.758,343.537 L543.758,337.36 C543.758,336.751 544.192,336.221 544.789,336.101 L545.482,335.963 C547.246,335.61 548.391,333.894 548.037,332.13 C547.684,330.365 545.97,329.223 544.204,329.574 L543.511,329.713 C539.879,330.44 537.242,333.656 537.242,337.36 L537.242,343.538 C537.242,347.242 539.879,350.458 543.511,351.185 L552.931,353.068 C553.505,354.776 554.196,356.443 554.997,358.054 L549.667,366.048 C547.612,369.13 548.022,373.269 550.642,375.888 L555.01,380.256 C557.629,382.875 561.768,383.285 564.85,381.23 L572.843,375.901 C574.455,376.702 576.122,377.393 577.829,377.966 L579.713,387.386 C580.44,391.019 583.656,393.655 587.36,393.655 L593.538,393.655 C597.242,393.655 600.458,391.019 601.185,387.386 L603.069,377.966 C604.776,377.393 606.443,376.701 608.054,375.9 L616.048,381.23 C619.131,383.284 623.269,382.875 625.888,380.255 L630.256,375.888 C632.876,373.268 633.285,369.13 631.23,366.047 L625.901,358.054 C626.702,356.442 627.393,354.775 627.966,353.068 L637.386,351.184 C641.018,350.458 643.655,347.242 643.655,343.537 L643.655,337.36 C643.655,333.656 641.019,330.44 637.386,329.713 z" fill-opacity="0" stroke="#454545" stroke-width="1" class="bXkxTvfN_18"></path>
      </g>
      <g>
        <path d="M590.449,328.722 C596.916,328.722 602.176,333.982 602.176,340.449 C602.176,342.248 603.635,343.706 605.434,343.706 C607.232,343.706 608.691,342.248 608.691,340.449 C608.691,330.39 600.508,322.207 590.449,322.207 C580.39,322.207 572.206,330.39 572.206,340.449 C572.206,350.508 580.39,358.691 590.449,358.691 C594.523,358.691 598.377,357.377 601.594,354.892 C603.017,353.792 603.28,351.746 602.18,350.322 C601.08,348.898 599.034,348.636 597.61,349.736 C595.544,351.332 593.067,352.176 590.449,352.176 C583.982,352.176 578.722,346.915 578.722,340.449 C578.722,333.982 583.983,328.722 590.449,328.722 z" fill="#454545" class="bXkxTvfN_19"></path>
        <path d="M590.449,328.722 C596.916,328.722 602.176,333.982 602.176,340.449 C602.176,342.248 603.635,343.706 605.434,343.706 C607.232,343.706 608.691,342.248 608.691,340.449 C608.691,330.39 600.508,322.207 590.449,322.207 C580.39,322.207 572.206,330.39 572.206,340.449 C572.206,350.508 580.39,358.691 590.449,358.691 C594.523,358.691 598.377,357.377 601.594,354.892 C603.017,353.792 603.28,351.746 602.18,350.322 C601.08,348.898 599.034,348.636 597.61,349.736 C595.544,351.332 593.067,352.176 590.449,352.176 C583.982,352.176 578.722,346.915 578.722,340.449 C578.722,333.982 583.983,328.722 590.449,328.722 z" fill-opacity="0" stroke="#454545" stroke-width="1" class="bXkxTvfN_20"></path>
      </g>
      <g>
        <path d="M536.458,266.612 C536.458,255.668 527.555,246.765 516.612,246.765 C505.668,246.765 496.765,255.669 496.765,266.612 C496.765,277.555 505.668,286.458 516.612,286.458 C527.555,286.458 536.458,277.554 536.458,266.612 z M503.28,266.612 C503.28,259.261 509.261,253.28 516.612,253.28 C523.962,253.28 529.943,259.261 529.943,266.612 C529.943,273.962 523.963,279.943 516.612,279.943 C509.26,279.943 503.28,273.962 503.28,266.612 z" fill="#454545" class="bXkxTvfN_21"></path>
        <path d="M536.458,266.612 C536.458,255.668 527.555,246.765 516.612,246.765 C505.668,246.765 496.765,255.669 496.765,266.612 C496.765,277.555 505.668,286.458 516.612,286.458 C527.555,286.458 536.458,277.554 536.458,266.612 z M503.28,266.612 C503.28,259.261 509.261,253.28 516.612,253.28 C523.962,253.28 529.943,259.261 529.943,266.612 C529.943,273.962 523.963,279.943 516.612,279.943 C509.26,279.943 503.28,273.962 503.28,266.612 z" fill-opacity="0" stroke="#454545" stroke-width="1" class="bXkxTvfN_22"></path>
      </g>
    </g>
    <path d="M407.717,213.838 L455.537,241.655" fill-opacity="0" stroke="#454545" stroke-width="5" stroke-linecap="round" class="bXkxTvfN_23"></path>
    <path d="M600.773,251.155 L673.283,213.838" fill-opacity="0" stroke="#454545" stroke-width="5" stroke-linecap="round" class="bXkxTvfN_24"></path>
    <path d="M540.5,443.824 L540.982,359.472" fill-opacity="0" stroke="#454545" stroke-width="5" stroke-linecap="round" class="bXkxTvfN_25"></path>
    <path d="M792.413,390 C775.845,390 762.413,376.568 762.413,360" fill-opacity="0" stroke="#454545" stroke-width="8" class="bXkxTvfN_26"></path>
    <path d="M732.413,314.471 C748.982,314.471 762.413,327.903 762.413,344.471" fill-opacity="0" stroke="#454545" stroke-width="8" class="bXkxTvfN_27"></path>
    <path d="M792.339,390 L843.901,390" fill-opacity="0" stroke="#454545" stroke-width="8" class="bXkxTvfN_28"></path>
    <path d="M673.283,266.467 L732.551,266.468" fill-opacity="0" stroke="#454545" stroke-width="8" class="bXkxTvfN_29"></path>
    <path d="M762.413,236.562 L762.413,220.844" fill-opacity="0" stroke="#454545" stroke-width="8" class="bXkxTvfN_30"></path>
    <path d="M792.413,190.939 C775.845,190.939 762.413,204.37 762.413,220.939" fill-opacity="0" stroke="#454545" stroke-width="8" class="bXkxTvfN_31"></path>
    <path d="M732.413,266.468 C748.982,266.468 762.413,253.036 762.413,236.467" fill-opacity="0" stroke="#454545" stroke-width="8" class="bXkxTvfN_32"></path>
    <path d="M792.339,190.939 L843.901,190.939" fill-opacity="0" stroke="#454545" stroke-width="8" class="bXkxTvfN_33"></path>
  </g>
<style data-made-with="vivus-instant">.bXkxTvfN_0{stroke-dasharray:591 593;stroke-dashoffset:592;animation:bXkxTvfN_draw 1000ms linear 0ms forwards;}.bXkxTvfN_1{stroke-dasharray:591 593;stroke-dashoffset:592;animation:bXkxTvfN_draw 1000ms linear 0ms forwards;}.bXkxTvfN_2{stroke-dasharray:171 173;stroke-dashoffset:172;animation:bXkxTvfN_draw 1000ms linear 0ms forwards;}.bXkxTvfN_3{stroke-dasharray:60 62;stroke-dashoffset:61;animation:bXkxTvfN_draw 1000ms linear 0ms forwards;}.bXkxTvfN_4{stroke-dasharray:16 18;stroke-dashoffset:17;animation:bXkxTvfN_draw 1000ms linear 0ms forwards;}.bXkxTvfN_5{stroke-dasharray:0 2;stroke-dashoffset:1;animation:bXkxTvfN_draw 1000ms linear 0ms forwards;}.bXkxTvfN_6{stroke-dasharray:920 922;stroke-dashoffset:921;animation:bXkxTvfN_draw 1000ms linear 0ms forwards;}.bXkxTvfN_7{stroke-dasharray:407 409;stroke-dashoffset:408;animation:bXkxTvfN_draw 1000ms linear 0ms forwards;}.bXkxTvfN_8{stroke-dasharray:420 422;stroke-dashoffset:421;animation:bXkxTvfN_draw 1000ms linear 0ms forwards;}.bXkxTvfN_9{stroke-dasharray:591 593;stroke-dashoffset:592;animation:bXkxTvfN_draw 1000ms linear 0ms forwards;}.bXkxTvfN_10{stroke-dasharray:315 317;stroke-dashoffset:316;animation:bXkxTvfN_draw 1000ms linear 0ms forwards;}.bXkxTvfN_11{stroke-dasharray:1101 1103;stroke-dashoffset:1102;animation:bXkxTvfN_draw 1000ms linear 0ms forwards;}.bXkxTvfN_12{stroke-dasharray:1101 1103;stroke-dashoffset:1102;animation:bXkxTvfN_draw 1000ms linear 0ms forwards;}.bXkxTvfN_13{stroke-dasharray:209 211;stroke-dashoffset:210;animation:bXkxTvfN_draw 1000ms linear 0ms forwards;}.bXkxTvfN_14{stroke-dasharray:209 211;stroke-dashoffset:210;animation:bXkxTvfN_draw 1000ms linear 0ms forwards;}.bXkxTvfN_15{stroke-dasharray:190 192;stroke-dashoffset:191;animation:bXkxTvfN_draw 1000ms linear 0ms forwards;}.bXkxTvfN_16{stroke-dasharray:190 192;stroke-dashoffset:191;animation:bXkxTvfN_draw 1000ms linear 0ms forwards;}.bXkxTvfN_17{stroke-dasharray:800 802;stroke-dashoffset:801;animation:bXkxTvfN_draw 1000ms linear 0ms forwards;}.bXkxTvfN_18{stroke-dasharray:800 802;stroke-dashoffset:801;animation:bXkxTvfN_draw 1000ms linear 0ms forwards;}.bXkxTvfN_19{stroke-dasharray:182 184;stroke-dashoffset:183;animation:bXkxTvfN_draw 1000ms linear 0ms forwards;}.bXkxTvfN_20{stroke-dasharray:182 184;stroke-dashoffset:183;animation:bXkxTvfN_draw 1000ms linear 0ms forwards;}.bXkxTvfN_21{stroke-dasharray:209 211;stroke-dashoffset:210;animation:bXkxTvfN_draw 1000ms linear 0ms forwards;}.bXkxTvfN_22{stroke-dasharray:209 211;stroke-dashoffset:210;animation:bXkxTvfN_draw 1000ms linear 0ms forwards;}.bXkxTvfN_23{stroke-dasharray:56 58;stroke-dashoffset:57;animation:bXkxTvfN_draw 1000ms linear 0ms forwards;}.bXkxTvfN_24{stroke-dasharray:82 84;stroke-dashoffset:83;animation:bXkxTvfN_draw 1000ms linear 0ms forwards;}.bXkxTvfN_25{stroke-dasharray:85 87;stroke-dashoffset:86;animation:bXkxTvfN_draw 1000ms linear 0ms forwards;}.bXkxTvfN_26{stroke-dasharray:48 50;stroke-dashoffset:49;animation:bXkxTvfN_draw 1000ms linear 0ms forwards;}.bXkxTvfN_27{stroke-dasharray:48 50;stroke-dashoffset:49;animation:bXkxTvfN_draw 1000ms linear 0ms forwards;}.bXkxTvfN_28{stroke-dasharray:52 54;stroke-dashoffset:53;animation:bXkxTvfN_draw 1000ms linear 0ms forwards;}.bXkxTvfN_29{stroke-dasharray:60 62;stroke-dashoffset:61;animation:bXkxTvfN_draw 1000ms linear 0ms forwards;}.bXkxTvfN_30{stroke-dasharray:16 18;stroke-dashoffset:17;animation:bXkxTvfN_draw 1000ms linear 0ms forwards;}.bXkxTvfN_31{stroke-dasharray:48 50;stroke-dashoffset:49;animation:bXkxTvfN_draw 1000ms linear 0ms forwards;}.bXkxTvfN_32{stroke-dasharray:48 50;stroke-dashoffset:49;animation:bXkxTvfN_draw 1000ms linear 0ms forwards;}.bXkxTvfN_33{stroke-dasharray:52 54;stroke-dashoffset:53;animation:bXkxTvfN_draw 1000ms linear 0ms forwards;}@keyframes bXkxTvfN_draw{100%{stroke-dashoffset:0;}}@keyframes bXkxTvfN_fade{0%{stroke-opacity:1;}92.3076923076923%{stroke-opacity:1;}100%{stroke-opacity:0;}}</style></svg>
