<!--?xml version="1.0" encoding="UTF-8"?-->

<svg version="1.1" xmlns="http://www.w3.org/2000/svg" xmlns:xlink="http://www.w3.org/1999/xlink" x="0" y="0" width="1400" height="600" viewBox="0, 0, 1400, 600" style="">
  <g id="Livello_1">
    <g>
      <path d="M331.799,45.5 L469.485,45.5 C472.885,45.5 475.642,47.892 475.642,50.843 L475.642,190.157 C475.642,193.108 472.885,195.5 469.485,195.5 L331.799,195.5 C328.398,195.5 325.642,193.108 325.642,190.157 L325.642,50.843 C325.642,47.892 328.398,45.5 331.799,45.5 z" fill="#BCBCBC" fill-opacity="0.702" class="kZLUemTg_0"></path>
      <path d="M331.799,45.5 L469.485,45.5 C472.885,45.5 475.642,47.892 475.642,50.843 L475.642,190.157 C475.642,193.108 472.885,195.5 469.485,195.5 L331.799,195.5 C328.398,195.5 325.642,193.108 325.642,190.157 L325.642,50.843 C325.642,47.892 328.398,45.5 331.799,45.5 z" fill-opacity="0" stroke="#454545" stroke-width="8" class="kZLUemTg_1"></path>
    </g>
    <path d="M481.799,45.5 L619.485,45.5 C622.885,45.5 625.642,47.892 625.642,50.843 L625.642,190.157 C625.642,193.108 622.885,195.5 619.485,195.5 L481.799,195.5 C478.398,195.5 475.642,193.108 475.642,190.157 L475.642,50.843 C475.642,47.892 478.398,45.5 481.799,45.5 z" fill-opacity="0" stroke="#454545" stroke-width="8" class="kZLUemTg_2"></path>
    <path d="M631.799,45.225 L769.485,45.225 C772.885,45.225 775.642,47.617 775.642,50.567 L775.642,189.882 C775.642,192.833 772.885,195.225 769.485,195.225 L631.799,195.225 C628.398,195.225 625.642,192.833 625.642,189.882 L625.642,50.567 C625.642,47.617 628.398,45.225 631.799,45.225 z" fill-opacity="0" stroke="#454545" stroke-width="8" class="kZLUemTg_3"></path>
    <path d="M181.799,45.225 L319.485,45.225 C322.885,45.225 325.642,47.617 325.642,50.567 L325.642,189.882 C325.642,192.833 322.885,195.225 319.485,195.225 L181.799,195.225 C178.398,195.225 175.642,192.833 175.642,189.882 L175.642,50.567 C175.642,47.617 178.398,45.225 181.799,45.225 z" fill-opacity="0" stroke="#454545" stroke-width="8" class="kZLUemTg_4"></path>
    <path d="M124.48,162 L138.367,162 L107.839,77.449 L93.66,77.449 L63.132,162 L76.785,162 L84.519,139.148 L116.746,139.148 z M100.457,91.512 L100.808,91.512 L113.406,128.602 L87.859,128.602 z" fill="#454545" class="kZLUemTg_5"></path>
    <path d="M781.799,45.5 L919.485,45.5 C922.885,45.5 925.642,47.892 925.642,50.843 L925.642,190.157 C925.642,193.108 922.885,195.5 919.485,195.5 L781.799,195.5 C778.398,195.5 775.642,193.108 775.642,190.157 L775.642,50.843 C775.642,47.892 778.398,45.5 781.799,45.5 z" fill-opacity="0" stroke="#454545" stroke-width="8" class="kZLUemTg_6"></path>
    <path d="M31.799,45.5 L169.485,45.5 C172.885,45.5 175.642,47.892 175.642,50.843 L175.642,190.157 C175.642,193.108 172.885,195.5 169.485,195.5 L31.799,195.5 C28.398,195.5 25.642,193.108 25.642,190.157 L25.642,50.843 C25.642,47.892 28.398,45.5 31.799,45.5 z" fill-opacity="0" stroke="#454545" stroke-width="8" class="kZLUemTg_7"></path>
    <g>
      <path d="M331.799,405.5 L469.485,405.5 C472.885,405.5 475.642,407.892 475.642,410.843 L475.642,550.157 C475.642,553.108 472.885,555.5 469.485,555.5 L331.799,555.5 C328.398,555.5 325.642,553.108 325.642,550.157 L325.642,410.843 C325.642,407.892 328.398,405.5 331.799,405.5 z" fill="#BCBCBC" fill-opacity="0.7" class="kZLUemTg_8"></path>
      <path d="M331.799,405.5 L469.485,405.5 C472.885,405.5 475.642,407.892 475.642,410.843 L475.642,550.157 C475.642,553.108 472.885,555.5 469.485,555.5 L331.799,555.5 C328.398,555.5 325.642,553.108 325.642,550.157 L325.642,410.843 C325.642,407.892 328.398,405.5 331.799,405.5 z" fill-opacity="0" stroke="#454545" stroke-width="8" class="kZLUemTg_9"></path>
    </g>
    <path d="M481.799,405.5 L619.485,405.5 C622.885,405.5 625.642,407.892 625.642,410.843 L625.642,550.157 C625.642,553.108 622.885,555.5 619.485,555.5 L481.799,555.5 C478.398,555.5 475.642,553.108 475.642,550.157 L475.642,410.843 C475.642,407.892 478.398,405.5 481.799,405.5 z" fill-opacity="0" stroke="#454545" stroke-width="8" class="kZLUemTg_10"></path>
    <path d="M631.799,405.225 L769.485,405.225 C772.885,405.225 775.642,407.617 775.642,410.567 L775.642,549.882 C775.642,552.833 772.885,555.225 769.485,555.225 L631.799,555.225 C628.398,555.225 625.642,552.833 625.642,549.882 L625.642,410.567 C625.642,407.617 628.398,405.225 631.799,405.225 z" fill-opacity="0" stroke="#454545" stroke-width="8" class="kZLUemTg_11"></path>
    <path d="M181.515,405.225 L319.201,405.225 C322.602,405.225 325.358,407.617 325.358,410.567 L325.358,549.882 C325.358,552.833 322.602,555.225 319.201,555.225 L181.515,555.225 C178.115,555.225 175.358,552.833 175.358,549.882 L175.358,410.567 C175.358,407.617 178.115,405.225 181.515,405.225 z" fill-opacity="0" stroke="#454545" stroke-width="8" class="kZLUemTg_12"></path>
    <path d="M781.799,405.5 L919.485,405.5 C922.885,405.5 925.642,407.892 925.642,410.843 L925.642,550.157 C925.642,553.108 922.885,555.5 919.485,555.5 L781.799,555.5 C778.398,555.5 775.642,553.108 775.642,550.157 L775.642,410.843 C775.642,407.892 778.398,405.5 781.799,405.5 z" fill-opacity="0" stroke="#454545" stroke-width="8" class="kZLUemTg_13"></path>
    <path d="M31.515,405.5 L169.201,405.5 C172.602,405.5 175.358,407.892 175.358,410.843 L175.358,550.157 C175.358,553.108 172.602,555.5 169.201,555.5 L31.515,555.5 C28.115,555.5 25.358,553.108 25.358,550.157 L25.358,410.843 C25.358,407.892 28.115,405.5 31.515,405.5 z" fill-opacity="0" stroke="#454545" stroke-width="8" class="kZLUemTg_14"></path>
    <path d="M253.298,161.587 C271.287,161.587 282.127,152.563 282.127,137.681 C282.127,126.431 274.392,118.286 262.908,116.997 L262.908,116.528 C271.345,115.122 277.966,107.095 277.966,98.13 C277.966,85.356 268.123,77.036 253.123,77.036 L219.373,77.036 L219.373,161.587 z M232.498,87.759 L249.959,87.759 C259.451,87.759 264.841,92.095 264.841,99.946 C264.841,108.325 258.572,113.013 247.205,113.013 L232.498,113.013 z M232.498,150.864 L232.498,123.032 L249.841,123.032 C262.263,123.032 268.709,127.72 268.709,136.86 C268.709,146.001 262.439,150.864 250.603,150.864 z" fill="#454545" class="kZLUemTg_15"></path>
    <path d="M398.548,162.993 C418.001,162.993 431.243,152.739 434.466,135.278 L421.399,135.278 C418.763,145.474 410.384,151.509 398.606,151.509 C383.079,151.509 373.235,139.028 373.235,119.282 C373.235,99.712 383.196,87.114 398.548,87.114 C410.032,87.114 419.056,94.204 421.399,105.044 L434.407,105.044 C432.181,87.407 417.708,75.63 398.548,75.63 C374.935,75.63 359.817,92.505 359.817,119.282 C359.817,146.235 374.817,162.993 398.548,162.993 z" fill="#454545" class="kZLUemTg_16"></path>
    <path d="M515.828,77.036 L515.828,161.587 L545.652,161.587 C570.847,161.587 585.672,145.884 585.672,119.165 C585.672,92.505 570.789,77.036 545.652,77.036 z M528.953,88.345 L544.422,88.345 C562.293,88.345 572.254,99.36 572.254,119.282 C572.254,139.263 562.351,150.22 544.422,150.22 L528.953,150.22 z" fill="#454545" class="kZLUemTg_17"></path>
    <path d="M726.978,150.22 L686.431,150.22 L686.431,123.97 L724.81,123.97 L724.81,113.071 L686.431,113.071 L686.431,88.345 L726.978,88.345 L726.978,77.036 L673.306,77.036 L673.306,161.587 L726.978,161.587 z" fill="#454545" class="kZLUemTg_18"></path>
    <path d="M842.267,161.587 L842.267,126.196 L878.595,126.196 L878.595,115.122 L842.267,115.122 L842.267,88.345 L881.935,88.345 L881.935,77.036 L829.142,77.036 L829.142,161.587 z" fill="#454545" class="kZLUemTg_19"></path>
    <g>
      <path d="M100.667,207.326 L100.623,368.074" fill-opacity="0" stroke="#454545" stroke-width="8" stroke-linecap="round" class="kZLUemTg_20"></path>
      <path d="M93.423,368.072 L100.618,387.274 L107.823,368.076 z" fill="#454545" fill-opacity="1" stroke="#454545" stroke-width="8" stroke-opacity="1" class="kZLUemTg_21"></path>
    </g>
    <g>
      <path d="M251.275,207.326 L251.231,368.074" fill-opacity="0" stroke="#454545" stroke-width="8" stroke-linecap="round" class="kZLUemTg_22"></path>
      <path d="M244.031,368.072 L251.226,387.274 L258.431,368.076 z" fill="#454545" fill-opacity="1" stroke="#454545" stroke-width="8" stroke-opacity="1" class="kZLUemTg_23"></path>
    </g>
    <g>
      <path d="M400.667,207.326 L400.623,368.074" fill-opacity="0" stroke="#454545" stroke-width="8" stroke-linecap="round" class="kZLUemTg_24"></path>
      <path d="M393.423,368.072 L400.618,387.274 L407.823,368.076 z" fill="#454545" fill-opacity="1" stroke="#454545" stroke-width="8" stroke-opacity="1" class="kZLUemTg_25"></path>
    </g>
    <path d="M1232.082,45.775 L1369.768,45.775 C1373.168,45.775 1375.925,48.167 1375.925,51.118 L1375.925,190.433 C1375.925,193.383 1373.168,195.775 1369.768,195.775 L1232.082,195.775 C1228.681,195.775 1225.925,193.383 1225.925,190.433 L1225.925,51.118 C1225.925,48.167 1228.681,45.775 1232.082,45.775 z" fill-opacity="0" stroke="#454545" stroke-width="8" class="kZLUemTg_26"></path>
    <path d="M1082.082,45.5 L1219.768,45.5 C1223.168,45.5 1225.925,47.892 1225.925,50.843 L1225.925,190.157 C1225.925,193.108 1223.168,195.5 1219.768,195.5 L1082.082,195.5 C1078.681,195.5 1075.925,193.108 1075.925,190.157 L1075.925,50.843 C1075.925,47.892 1078.681,45.5 1082.082,45.5 z" fill-opacity="0" stroke="#454545" stroke-width="8" class="kZLUemTg_27"></path>
    <path d="M1024.763,162.275 L1038.65,162.275 L1008.123,77.725 L993.943,77.725 L963.416,162.275 L977.068,162.275 L984.802,139.424 L1017.029,139.424 z M1000.74,91.787 L1001.091,91.787 L1013.689,128.877 L988.142,128.877 z" fill="#454545" class="kZLUemTg_28"></path>
    <path d="M932.082,45.775 L1069.768,45.775 C1073.168,45.775 1075.925,48.167 1075.925,51.118 L1075.925,190.433 C1075.925,193.383 1073.168,195.775 1069.768,195.775 L932.082,195.775 C928.681,195.775 925.925,193.383 925.925,190.433 L925.925,51.118 C925.925,48.167 928.681,45.775 932.082,45.775 z" fill-opacity="0" stroke="#454545" stroke-width="8" class="kZLUemTg_29"></path>
    <path d="M1232.082,405.775 L1369.768,405.775 C1373.168,405.775 1375.925,408.167 1375.925,411.118 L1375.925,550.433 C1375.925,553.383 1373.168,555.775 1369.768,555.775 L1232.082,555.775 C1228.681,555.775 1225.925,553.383 1225.925,550.433 L1225.925,411.118 C1225.925,408.167 1228.681,405.775 1232.082,405.775 z" fill-opacity="0" stroke="#454545" stroke-width="8" class="kZLUemTg_30"></path>
    <path d="M1081.799,405.5 L1219.484,405.5 C1222.885,405.5 1225.642,407.892 1225.642,410.843 L1225.642,550.157 C1225.642,553.108 1222.885,555.5 1219.484,555.5 L1081.799,555.5 C1078.398,555.5 1075.642,553.108 1075.642,550.157 L1075.642,410.843 C1075.642,407.892 1078.398,405.5 1081.799,405.5 z" fill-opacity="0" stroke="#454545" stroke-width="8" class="kZLUemTg_31"></path>
    <path d="M931.799,405.775 L1069.484,405.775 C1072.885,405.775 1075.642,408.167 1075.642,411.118 L1075.642,550.433 C1075.642,553.383 1072.885,555.775 1069.484,555.775 L931.799,555.775 C928.398,555.775 925.642,553.383 925.642,550.433 L925.642,411.118 C925.642,408.167 928.398,405.775 931.799,405.775 z" fill-opacity="0" stroke="#454545" stroke-width="8" class="kZLUemTg_32"></path>
    <path d="M1153.582,161.862 C1171.57,161.862 1182.41,152.839 1182.41,137.956 C1182.41,126.706 1174.675,118.562 1163.191,117.272 L1163.191,116.804 C1171.629,115.397 1178.25,107.37 1178.25,98.405 C1178.25,85.632 1168.406,77.312 1153.406,77.312 L1119.656,77.312 L1119.656,161.862 z M1132.781,88.034 L1150.242,88.034 C1159.734,88.034 1165.125,92.37 1165.125,100.222 C1165.125,108.601 1158.855,113.288 1147.488,113.288 L1132.781,113.288 z M1132.781,151.14 L1132.781,123.308 L1150.125,123.308 C1162.547,123.308 1168.992,127.995 1168.992,137.136 C1168.992,146.276 1162.722,151.14 1150.886,151.14 z" fill="#454545" class="kZLUemTg_33"></path>
    <path d="M1298.831,163.269 C1318.284,163.269 1331.526,153.015 1334.749,135.554 L1321.683,135.554 C1319.046,145.749 1310.667,151.784 1298.89,151.784 C1283.362,151.784 1273.519,139.304 1273.519,119.558 C1273.519,99.987 1283.479,87.39 1298.831,87.39 C1310.315,87.39 1319.339,94.479 1321.683,105.319 L1334.69,105.319 C1332.464,87.683 1317.991,75.905 1298.831,75.905 C1275.218,75.905 1260.101,92.78 1260.101,119.558 C1260.101,146.511 1275.101,163.269 1298.831,163.269 z" fill="#454545" class="kZLUemTg_34"></path>
    <g>
      <path d="M1000.95,207.601 L1000.906,368.349" fill-opacity="0" stroke="#454545" stroke-width="8" stroke-linecap="round" class="kZLUemTg_35"></path>
      <path d="M993.706,368.347 L1000.901,387.549 L1008.106,368.351 z" fill="#454545" fill-opacity="1" stroke="#454545" stroke-width="8" stroke-opacity="1" class="kZLUemTg_36"></path>
    </g>
    <g>
      <path d="M1151.558,207.601 L1151.514,368.349" fill-opacity="0" stroke="#454545" stroke-width="8" stroke-linecap="round" class="kZLUemTg_37"></path>
      <path d="M1144.314,368.347 L1151.509,387.549 L1158.714,368.351 z" fill="#454545" fill-opacity="1" stroke="#454545" stroke-width="8" stroke-opacity="1" class="kZLUemTg_38"></path>
    </g>
    <g>
      <path d="M1300.95,207.601 L1300.906,368.349" fill-opacity="0" stroke="#454545" stroke-width="8" stroke-linecap="round" class="kZLUemTg_39"></path>
      <path d="M1293.706,368.347 L1300.901,387.549 L1308.106,368.351 z" fill="#454545" fill-opacity="1" stroke="#454545" stroke-width="8" stroke-opacity="1" class="kZLUemTg_40"></path>
    </g>
    <g>
      <path d="M550.525,207.601 L550.482,368.349" fill-opacity="0" stroke="#454545" stroke-width="8" stroke-linecap="round" class="kZLUemTg_41"></path>
      <path d="M543.282,368.347 L550.476,387.549 L557.682,368.351 z" fill="#454545" fill-opacity="1" stroke="#454545" stroke-width="8" stroke-opacity="1" class="kZLUemTg_42"></path>
    </g>
    <g>
      <path d="M701.133,207.601 L701.09,368.349" fill-opacity="0" stroke="#454545" stroke-width="8" stroke-linecap="round" class="kZLUemTg_43"></path>
      <path d="M693.89,368.347 L701.084,387.549 L708.29,368.351 z" fill="#454545" fill-opacity="1" stroke="#454545" stroke-width="8" stroke-opacity="1" class="kZLUemTg_44"></path>
    </g>
    <g>
      <path d="M850.525,207.601 L850.482,368.349" fill-opacity="0" stroke="#454545" stroke-width="8" stroke-linecap="round" class="kZLUemTg_45"></path>
      <path d="M843.282,368.347 L850.476,387.549 L857.682,368.351 z" fill="#454545" fill-opacity="1" stroke="#454545" stroke-width="8" stroke-opacity="1" class="kZLUemTg_46"></path>
    </g>
    <path d="M68.101,522.979 L131.616,522.979 L131.616,511.611 L84.39,511.611 L84.39,511.201 L130.503,447.393 L130.503,438.428 L69.507,438.428 L69.507,449.736 L114.39,449.736 L114.39,450.205 L68.101,514.014 z" fill="#454545" class="kZLUemTg_47"></path>
    <path d="M256.392,522.979 L256.392,488.35 L286.216,438.428 L271.685,438.428 L250.122,475.752 L249.712,475.752 L228.149,438.428 L213.501,438.428 L243.267,488.35 L243.267,522.979 z" fill="#454545" class="kZLUemTg_48"></path>
    <path d="M363.55,522.979 L378.081,522.979 L399.409,490.752 L399.819,490.752 L420.854,522.979 L436.206,522.979 L408.081,481.025 L408.081,480.674 L436.733,438.428 L421.909,438.428 L400.815,471.123 L400.347,471.123 L379.487,438.428 L363.843,438.428 L391.616,480.205 L391.616,480.615 z" fill="#454545" class="kZLUemTg_49"></path>
    <path d="M550.427,459.229 L551.013,459.229 L569.295,522.979 L581.658,522.979 L604.509,438.428 L590.857,438.428 L575.213,504.639 L574.744,504.639 L556.814,438.428 L544.627,438.428 L526.755,504.639 L526.287,504.639 L510.642,438.428 L496.99,438.428 L519.783,522.979 L532.205,522.979 z" fill="#454545" class="kZLUemTg_50"></path>
    <path d="M707.786,522.979 L737.962,438.428 L723.958,438.428 L700.872,508.213 L700.52,508.213 L677.493,438.428 L663.255,438.428 L693.43,522.979 z" fill="#454545" class="kZLUemTg_51"></path>
    <path d="M829.048,437.725 L815.923,437.725 L815.923,492.568 C815.923,510.791 828.931,523.682 850.142,523.682 C871.353,523.682 884.36,510.791 884.36,492.568 L884.36,437.725 L871.294,437.725 L871.294,491.455 C871.294,503.525 863.618,512.021 850.142,512.021 C836.665,512.021 829.048,503.525 829.048,491.455 z" fill="#454545" class="kZLUemTg_52"></path>
    <path d="M1006.733,522.979 L1006.733,449.736 L1032.573,449.736 L1032.573,438.428 L967.71,438.428 L967.71,449.736 L993.608,449.736 L993.608,522.979 z" fill="#454545" class="kZLUemTg_53"></path>
    <path d="M1118.601,499.424 C1119.422,514.717 1132.078,524.385 1150.828,524.385 C1170.867,524.385 1183.464,514.482 1183.464,498.662 C1183.464,486.299 1176.257,479.326 1158.914,475.225 L1149.597,472.939 C1138.699,470.244 1134.246,466.729 1134.246,460.752 C1134.246,453.252 1141.218,448.096 1151.414,448.096 C1161.609,448.096 1168.582,453.193 1169.343,461.631 L1182.117,461.631 C1181.707,447.041 1169.461,437.021 1151.589,437.021 C1133.543,437.021 1120.828,447.041 1120.828,461.631 C1120.828,473.408 1128.035,480.674 1143.562,484.424 L1154.519,487.061 C1165.476,489.756 1170.105,493.682 1170.105,500.244 C1170.105,507.803 1162.429,513.311 1151.765,513.311 C1140.632,513.311 1132.488,507.803 1131.55,499.424 z" fill="#454545" class="kZLUemTg_54"></path>
    <path d="M1281.792,449.443 L1299.839,449.443 C1309.976,449.443 1316.128,455.186 1316.128,464.619 C1316.128,474.287 1310.327,479.854 1300.19,479.854 L1281.792,479.854 z M1281.792,490.459 L1299.839,490.459 L1299.839,490.459 L1317.065,522.979 L1332.183,522.979 L1313.257,488.408 C1323.569,484.951 1329.663,475.693 1329.663,464.268 C1329.663,448.506 1318.823,438.428 1301.421,438.428 L1268.667,438.428 L1268.667,522.979 L1281.792,522.979 z" fill="#454545" class="kZLUemTg_55"></path>
  </g>
<style data-made-with="vivus-instant">.kZLUemTg_0{stroke-dasharray:591 593;stroke-dashoffset:592;animation:kZLUemTg_draw 1666ms ease-in-out 0ms forwards;}.kZLUemTg_1{stroke-dasharray:591 593;stroke-dashoffset:592;animation:kZLUemTg_draw 1666ms ease-in-out 15ms forwards;}.kZLUemTg_2{stroke-dasharray:591 593;stroke-dashoffset:592;animation:kZLUemTg_draw 1666ms ease-in-out 30ms forwards;}.kZLUemTg_3{stroke-dasharray:591 593;stroke-dashoffset:592;animation:kZLUemTg_draw 1666ms ease-in-out 45ms forwards;}.kZLUemTg_4{stroke-dasharray:591 593;stroke-dashoffset:592;animation:kZLUemTg_draw 1666ms ease-in-out 60ms forwards;}.kZLUemTg_5{stroke-dasharray:407 409;stroke-dashoffset:408;animation:kZLUemTg_draw 1666ms ease-in-out 75ms forwards;}.kZLUemTg_6{stroke-dasharray:591 593;stroke-dashoffset:592;animation:kZLUemTg_draw 1666ms ease-in-out 90ms forwards;}.kZLUemTg_7{stroke-dasharray:591 593;stroke-dashoffset:592;animation:kZLUemTg_draw 1666ms ease-in-out 106ms forwards;}.kZLUemTg_8{stroke-dasharray:591 593;stroke-dashoffset:592;animation:kZLUemTg_draw 1666ms ease-in-out 121ms forwards;}.kZLUemTg_9{stroke-dasharray:591 593;stroke-dashoffset:592;animation:kZLUemTg_draw 1666ms ease-in-out 136ms forwards;}.kZLUemTg_10{stroke-dasharray:591 593;stroke-dashoffset:592;animation:kZLUemTg_draw 1666ms ease-in-out 151ms forwards;}.kZLUemTg_11{stroke-dasharray:591 593;stroke-dashoffset:592;animation:kZLUemTg_draw 1666ms ease-in-out 166ms forwards;}.kZLUemTg_12{stroke-dasharray:591 593;stroke-dashoffset:592;animation:kZLUemTg_draw 1666ms ease-in-out 181ms forwards;}.kZLUemTg_13{stroke-dasharray:591 593;stroke-dashoffset:592;animation:kZLUemTg_draw 1666ms ease-in-out 196ms forwards;}.kZLUemTg_14{stroke-dasharray:591 593;stroke-dashoffset:592;animation:kZLUemTg_draw 1666ms ease-in-out 212ms forwards;}.kZLUemTg_15{stroke-dasharray:509 511;stroke-dashoffset:510;animation:kZLUemTg_draw 1666ms ease-in-out 227ms forwards;}.kZLUemTg_16{stroke-dasharray:413 415;stroke-dashoffset:414;animation:kZLUemTg_draw 1666ms ease-in-out 242ms forwards;}.kZLUemTg_17{stroke-dasharray:465 467;stroke-dashoffset:466;animation:kZLUemTg_draw 1666ms ease-in-out 257ms forwards;}.kZLUemTg_18{stroke-dasharray:435 437;stroke-dashoffset:436;animation:kZLUemTg_draw 1666ms ease-in-out 272ms forwards;}.kZLUemTg_19{stroke-dasharray:348 350;stroke-dashoffset:349;animation:kZLUemTg_draw 1666ms ease-in-out 287ms forwards;}.kZLUemTg_20{stroke-dasharray:161 163;stroke-dashoffset:162;animation:kZLUemTg_draw 1666ms ease-in-out 303ms forwards;}.kZLUemTg_21{stroke-dasharray:56 58;stroke-dashoffset:57;animation:kZLUemTg_draw 1666ms ease-in-out 318ms forwards;}.kZLUemTg_22{stroke-dasharray:161 163;stroke-dashoffset:162;animation:kZLUemTg_draw 1666ms ease-in-out 333ms forwards;}.kZLUemTg_23{stroke-dasharray:56 58;stroke-dashoffset:57;animation:kZLUemTg_draw 1666ms ease-in-out 348ms forwards;}.kZLUemTg_24{stroke-dasharray:161 163;stroke-dashoffset:162;animation:kZLUemTg_draw 1666ms ease-in-out 363ms forwards;}.kZLUemTg_25{stroke-dasharray:56 58;stroke-dashoffset:57;animation:kZLUemTg_draw 1666ms ease-in-out 378ms forwards;}.kZLUemTg_26{stroke-dasharray:591 593;stroke-dashoffset:592;animation:kZLUemTg_draw 1666ms ease-in-out 393ms forwards;}.kZLUemTg_27{stroke-dasharray:591 593;stroke-dashoffset:592;animation:kZLUemTg_draw 1666ms ease-in-out 409ms forwards;}.kZLUemTg_28{stroke-dasharray:407 409;stroke-dashoffset:408;animation:kZLUemTg_draw 1666ms ease-in-out 424ms forwards;}.kZLUemTg_29{stroke-dasharray:591 593;stroke-dashoffset:592;animation:kZLUemTg_draw 1666ms ease-in-out 439ms forwards;}.kZLUemTg_30{stroke-dasharray:591 593;stroke-dashoffset:592;animation:kZLUemTg_draw 1666ms ease-in-out 454ms forwards;}.kZLUemTg_31{stroke-dasharray:591 593;stroke-dashoffset:592;animation:kZLUemTg_draw 1666ms ease-in-out 469ms forwards;}.kZLUemTg_32{stroke-dasharray:591 593;stroke-dashoffset:592;animation:kZLUemTg_draw 1666ms ease-in-out 484ms forwards;}.kZLUemTg_33{stroke-dasharray:509 511;stroke-dashoffset:510;animation:kZLUemTg_draw 1666ms ease-in-out 500ms forwards;}.kZLUemTg_34{stroke-dasharray:413 415;stroke-dashoffset:414;animation:kZLUemTg_draw 1666ms ease-in-out 515ms forwards;}.kZLUemTg_35{stroke-dasharray:161 163;stroke-dashoffset:162;animation:kZLUemTg_draw 1666ms ease-in-out 530ms forwards;}.kZLUemTg_36{stroke-dasharray:56 58;stroke-dashoffset:57;animation:kZLUemTg_draw 1666ms ease-in-out 545ms forwards;}.kZLUemTg_37{stroke-dasharray:161 163;stroke-dashoffset:162;animation:kZLUemTg_draw 1666ms ease-in-out 560ms forwards;}.kZLUemTg_38{stroke-dasharray:56 58;stroke-dashoffset:57;animation:kZLUemTg_draw 1666ms ease-in-out 575ms forwards;}.kZLUemTg_39{stroke-dasharray:161 163;stroke-dashoffset:162;animation:kZLUemTg_draw 1666ms ease-in-out 590ms forwards;}.kZLUemTg_40{stroke-dasharray:56 58;stroke-dashoffset:57;animation:kZLUemTg_draw 1666ms ease-in-out 606ms forwards;}.kZLUemTg_41{stroke-dasharray:161 163;stroke-dashoffset:162;animation:kZLUemTg_draw 1666ms ease-in-out 621ms forwards;}.kZLUemTg_42{stroke-dasharray:56 58;stroke-dashoffset:57;animation:kZLUemTg_draw 1666ms ease-in-out 636ms forwards;}.kZLUemTg_43{stroke-dasharray:161 163;stroke-dashoffset:162;animation:kZLUemTg_draw 1666ms ease-in-out 651ms forwards;}.kZLUemTg_44{stroke-dasharray:56 58;stroke-dashoffset:57;animation:kZLUemTg_draw 1666ms ease-in-out 666ms forwards;}.kZLUemTg_45{stroke-dasharray:161 163;stroke-dashoffset:162;animation:kZLUemTg_draw 1666ms ease-in-out 681ms forwards;}.kZLUemTg_46{stroke-dasharray:56 58;stroke-dashoffset:57;animation:kZLUemTg_draw 1666ms ease-in-out 696ms forwards;}.kZLUemTg_47{stroke-dasharray:416 418;stroke-dashoffset:417;animation:kZLUemTg_draw 1666ms ease-in-out 712ms forwards;}.kZLUemTg_48{stroke-dasharray:315 317;stroke-dashoffset:316;animation:kZLUemTg_draw 1666ms ease-in-out 727ms forwards;}.kZLUemTg_49{stroke-dasharray:420 422;stroke-dashoffset:421;animation:kZLUemTg_draw 1666ms ease-in-out 742ms forwards;}.kZLUemTg_50{stroke-dasharray:647 649;stroke-dashoffset:648;animation:kZLUemTg_draw 1666ms ease-in-out 757ms forwards;}.kZLUemTg_51{stroke-dasharray:370 372;stroke-dashoffset:371;animation:kZLUemTg_draw 1666ms ease-in-out 772ms forwards;}.kZLUemTg_52{stroke-dasharray:415 417;stroke-dashoffset:416;animation:kZLUemTg_draw 1666ms ease-in-out 787ms forwards;}.kZLUemTg_53{stroke-dasharray:299 301;stroke-dashoffset:300;animation:kZLUemTg_draw 1666ms ease-in-out 803ms forwards;}.kZLUemTg_54{stroke-dasharray:444 446;stroke-dashoffset:445;animation:kZLUemTg_draw 1666ms ease-in-out 818ms forwards;}.kZLUemTg_55{stroke-dasharray:464 466;stroke-dashoffset:465;animation:kZLUemTg_draw 1666ms ease-in-out 833ms forwards;}@keyframes kZLUemTg_draw{100%{stroke-dashoffset:0;}}@keyframes kZLUemTg_fade{0%{stroke-opacity:1;}94.02985074626866%{stroke-opacity:1;}100%{stroke-opacity:0;}}</style></svg>
