<?xml version="1.0" encoding="UTF-8"?>
<!DOCTYPE svg PUBLIC "-//W3C//DTD SVG 1.1//EN" "http://www.w3.org/Graphics/SVG/1.1/DTD/svg11.dtd">
<svg version="1.1" xmlns="http://www.w3.org/2000/svg" xmlns:xlink="http://www.w3.org/1999/xlink" x="0" y="0" width="1400" height="600" viewBox="0, 0, 1400, 600">
  <g id="Livello_1">
    <path d="M931.799,405.087 L1069.484,405.087 C1072.885,405.087 1075.642,407.479 1075.642,410.43 L1075.642,549.744 C1075.642,552.695 1072.885,555.087 1069.484,555.087 L931.799,555.087 C928.398,555.087 925.642,552.695 925.642,549.744 L925.642,410.43 C925.642,407.479 928.398,405.087 931.799,405.087 z" fill-opacity="0" stroke="#B2B2B2" stroke-width="8" stroke-dasharray="16,16"/>
    <path d="M781.799,45.5 L919.485,45.5 C922.885,45.5 925.642,47.892 925.642,50.843 L925.642,190.157 C925.642,193.108 922.885,195.5 919.485,195.5 L781.799,195.5 C778.398,195.5 775.642,193.108 775.642,190.157 L775.642,50.843 C775.642,47.892 778.398,45.5 781.799,45.5 z" fill-opacity="0" stroke="#454545" stroke-width="8"/>
    <path d="M931.799,45.5 L1069.484,45.5 C1072.885,45.5 1075.642,47.892 1075.642,50.843 L1075.642,190.157 C1075.642,193.108 1072.885,195.5 1069.484,195.5 L931.799,195.5 C928.398,195.5 925.642,193.108 925.642,190.157 L925.642,50.843 C925.642,47.892 928.398,45.5 931.799,45.5 z" fill-opacity="0" stroke="#454545" stroke-width="8"/>
    <path d="M1081.799,45.225 L1219.484,45.225 C1222.885,45.225 1225.642,47.617 1225.642,50.567 L1225.642,189.882 C1225.642,192.833 1222.885,195.225 1219.484,195.225 L1081.799,195.225 C1078.398,195.225 1075.642,192.833 1075.642,189.882 L1075.642,50.567 C1075.642,47.617 1078.398,45.225 1081.799,45.225 z" fill-opacity="0" stroke="#454545" stroke-width="8"/>
    <g>
      <path d="M631.799,45.225 L769.485,45.225 C772.885,45.225 775.642,47.617 775.642,50.567 L775.642,189.882 C775.642,192.833 772.885,195.225 769.485,195.225 L631.799,195.225 C628.398,195.225 625.642,192.833 625.642,189.882 L625.642,50.567 C625.642,47.617 628.398,45.225 631.799,45.225 z" fill="#BCBCBC" fill-opacity="0.7"/>
      <path d="M631.799,45.225 L769.485,45.225 C772.885,45.225 775.642,47.617 775.642,50.567 L775.642,189.882 C775.642,192.833 772.885,195.225 769.485,195.225 L631.799,195.225 C628.398,195.225 625.642,192.833 625.642,189.882 L625.642,50.567 C625.642,47.617 628.398,45.225 631.799,45.225 z" fill-opacity="0" stroke="#454545" stroke-width="8"/>
    </g>
    <path d="M574.48,162 L588.367,162 L557.839,77.449 L543.66,77.449 L513.132,162 L526.785,162 L534.519,139.148 L566.746,139.148 z M550.457,91.512 L550.808,91.512 L563.406,128.602 L537.859,128.602 z" fill="#454545"/>
    <path d="M1231.799,45.5 L1369.484,45.5 C1372.885,45.5 1375.642,47.892 1375.642,50.843 L1375.642,190.157 C1375.642,193.108 1372.885,195.5 1369.484,195.5 L1231.799,195.5 C1228.398,195.5 1225.642,193.108 1225.642,190.157 L1225.642,50.843 C1225.642,47.892 1228.398,45.5 1231.799,45.5 z" fill-opacity="0" stroke="#454545" stroke-width="8"/>
    <path d="M331.799,45.913 L469.485,45.913 C472.885,45.913 475.642,48.305 475.642,51.256 L475.642,190.57 C475.642,193.521 472.885,195.913 469.485,195.913 L331.799,195.913 C328.398,195.913 325.642,193.521 325.642,190.57 L325.642,51.256 C325.642,48.305 328.398,45.913 331.799,45.913 z" fill-opacity="0" stroke="#B2B2B2" stroke-width="8" stroke-dasharray="16,16"/>
    <path d="M481.799,45.5 L619.485,45.5 C622.885,45.5 625.642,47.892 625.642,50.843 L625.642,190.157 C625.642,193.108 622.885,195.5 619.485,195.5 L481.799,195.5 C478.398,195.5 475.642,193.108 475.642,190.157 L475.642,50.843 C475.642,47.892 478.398,45.5 481.799,45.5 z" fill-opacity="0" stroke="#454545" stroke-width="8"/>
    <path d="M181.799,45.362 L319.485,45.362 C322.885,45.362 325.642,47.754 325.642,50.705 L325.642,190.02 C325.642,192.97 322.885,195.362 319.485,195.362 L181.799,195.362 C178.398,195.362 175.642,192.97 175.642,190.02 L175.642,50.705 C175.642,47.754 178.398,45.362 181.799,45.362 z" fill-opacity="0" stroke="#B2B2B2" stroke-width="8" stroke-dasharray="16,16"/>
    <path d="M31.799,45.087 L169.485,45.087 C172.885,45.087 175.642,47.479 175.642,50.43 L175.642,189.744 C175.642,192.695 172.885,195.087 169.485,195.087 L31.799,195.087 C28.398,195.087 25.642,192.695 25.642,189.744 L25.642,50.43 C25.642,47.479 28.398,45.087 31.799,45.087 z" fill-opacity="0" stroke="#B2B2B2" stroke-width="8" stroke-dasharray="16,16"/>
    <path d="M331.799,405.5 L469.485,405.5 C472.885,405.5 475.642,407.892 475.642,410.843 L475.642,550.157 C475.642,553.108 472.885,555.5 469.485,555.5 L331.799,555.5 C328.398,555.5 325.642,553.108 325.642,550.157 L325.642,410.843 C325.642,407.892 328.398,405.5 331.799,405.5 z" fill-opacity="0" stroke="#454545" stroke-width="8"/>
    <path d="M481.799,405.5 L619.485,405.5 C622.885,405.5 625.642,407.892 625.642,410.843 L625.642,550.157 C625.642,553.108 622.885,555.5 619.485,555.5 L481.799,555.5 C478.398,555.5 475.642,553.108 475.642,550.157 L475.642,410.843 C475.642,407.892 478.398,405.5 481.799,405.5 z" fill-opacity="0" stroke="#454545" stroke-width="8"/>
    <g>
      <path d="M631.799,405.225 L769.485,405.225 C772.885,405.225 775.642,407.617 775.642,410.567 L775.642,549.882 C775.642,552.833 772.885,555.225 769.485,555.225 L631.799,555.225 C628.398,555.225 625.642,552.833 625.642,549.882 L625.642,410.567 C625.642,407.617 628.398,405.225 631.799,405.225 z" fill="#BCBCBC" fill-opacity="0.7"/>
      <path d="M631.799,405.225 L769.485,405.225 C772.885,405.225 775.642,407.617 775.642,410.567 L775.642,549.882 C775.642,552.833 772.885,555.225 769.485,555.225 L631.799,555.225 C628.398,555.225 625.642,552.833 625.642,549.882 L625.642,410.567 C625.642,407.617 628.398,405.225 631.799,405.225 z" fill-opacity="0" stroke="#454545" stroke-width="8"/>
    </g>
    <path d="M181.515,405.225 L319.201,405.225 C322.602,405.225 325.358,407.617 325.358,410.567 L325.358,549.882 C325.358,552.833 322.602,555.225 319.201,555.225 L181.515,555.225 C178.115,555.225 175.358,552.833 175.358,549.882 L175.358,410.567 C175.358,407.617 178.115,405.225 181.515,405.225 z" fill-opacity="0" stroke="#454545" stroke-width="8"/>
    <path d="M781.799,405.5 L919.485,405.5 C922.885,405.5 925.642,407.892 925.642,410.843 L925.642,550.157 C925.642,553.108 922.885,555.5 919.485,555.5 L781.799,555.5 C778.398,555.5 775.642,553.108 775.642,550.157 L775.642,410.843 C775.642,407.892 778.398,405.5 781.799,405.5 z" fill-opacity="0" stroke="#454545" stroke-width="8"/>
    <path d="M31.515,405.5 L169.201,405.5 C172.602,405.5 175.358,407.892 175.358,410.843 L175.358,550.157 C175.358,553.108 172.602,555.5 169.201,555.5 L31.515,555.5 C28.115,555.5 25.358,553.108 25.358,550.157 L25.358,410.843 C25.358,407.892 28.115,405.5 31.515,405.5 z" fill-opacity="0" stroke="#454545" stroke-width="8"/>
    <path d="M1231.799,405.913 L1369.484,405.913 C1372.885,405.913 1375.642,408.305 1375.642,411.256 L1375.642,550.57 C1375.642,553.521 1372.885,555.913 1369.484,555.913 L1231.799,555.913 C1228.398,555.913 1225.642,553.521 1225.642,550.57 L1225.642,411.256 C1225.642,408.305 1228.398,405.913 1231.799,405.913 z" fill-opacity="0" stroke="#B2B2B2" stroke-width="8" stroke-dasharray="16,16"/>
    <path d="M1081.799,405.362 L1219.484,405.362 C1222.885,405.362 1225.642,407.754 1225.642,410.705 L1225.642,550.02 C1225.642,552.97 1222.885,555.362 1219.484,555.362 L1081.799,555.362 C1078.398,555.362 1075.642,552.97 1075.642,550.02 L1075.642,410.705 C1075.642,407.754 1078.398,405.362 1081.799,405.362 z" fill-opacity="0" stroke="#B2B2B2" stroke-width="8" stroke-dasharray="16,16"/>
    <path d="M703.298,161.587 C721.287,161.587 732.127,152.563 732.127,137.681 C732.127,126.431 724.392,118.286 712.908,116.997 L712.908,116.528 C721.345,115.122 727.966,107.095 727.966,98.13 C727.966,85.356 718.123,77.036 703.123,77.036 L669.373,77.036 L669.373,161.587 z M682.498,87.759 L699.959,87.759 C709.451,87.759 714.841,92.095 714.841,99.946 C714.841,108.325 708.572,113.013 697.205,113.013 L682.498,113.013 z M682.498,150.864 L682.498,123.032 L699.841,123.032 C712.263,123.032 718.709,127.72 718.709,136.86 C718.709,146.001 712.439,150.864 700.603,150.864 z" fill="#454545"/>
    <path d="M848.548,162.993 C868.001,162.993 881.243,152.739 884.466,135.278 L871.399,135.278 C868.763,145.474 860.384,151.509 848.606,151.509 C833.079,151.509 823.235,139.028 823.235,119.282 C823.235,99.712 833.196,87.114 848.548,87.114 C860.032,87.114 869.056,94.204 871.399,105.044 L884.407,105.044 C882.181,87.407 867.708,75.63 848.548,75.63 C824.935,75.63 809.817,92.505 809.817,119.282 C809.817,146.235 824.817,162.993 848.548,162.993 z" fill="#454545"/>
    <path d="M965.828,77.036 L965.828,161.587 L995.652,161.587 C1020.847,161.587 1035.672,145.884 1035.672,119.165 C1035.672,92.505 1020.789,77.036 995.652,77.036 z M978.953,88.345 L994.422,88.345 C1012.293,88.345 1022.254,99.36 1022.254,119.282 C1022.254,139.263 1012.351,150.22 994.422,150.22 L978.953,150.22 z" fill="#454545"/>
    <path d="M1176.978,150.22 L1136.431,150.22 L1136.431,123.97 L1174.81,123.97 L1174.81,113.071 L1136.431,113.071 L1136.431,88.345 L1176.978,88.345 L1176.978,77.036 L1123.306,77.036 L1123.306,161.587 L1176.978,161.587 z" fill="#454545"/>
    <path d="M1292.267,161.587 L1292.267,126.196 L1328.595,126.196 L1328.595,115.122 L1292.267,115.122 L1292.267,88.345 L1331.935,88.345 L1331.935,77.036 L1279.142,77.036 L1279.142,161.587 z" fill="#454545"/>
    <path d="M124.48,523.102 L138.367,523.102 L107.839,438.551 L93.66,438.551 L63.132,523.102 L76.785,523.102 L84.519,500.25 L116.746,500.25 z M100.457,452.613 L100.808,452.613 L113.406,489.703 L87.859,489.703 z" fill="#454545"/>
    <path d="M253.298,522.688 C271.287,522.688 282.127,513.665 282.127,498.782 C282.127,487.532 274.392,479.388 262.908,478.099 L262.908,477.63 C271.345,476.224 277.966,468.196 277.966,459.231 C277.966,446.458 268.123,438.138 253.123,438.138 L219.373,438.138 L219.373,522.688 z M232.498,448.86 L249.959,448.86 C259.451,448.86 264.841,453.196 264.841,461.048 C264.841,469.427 258.572,474.114 247.205,474.114 L232.498,474.114 z M232.498,511.966 L232.498,484.134 L249.841,484.134 C262.263,484.134 268.709,488.821 268.709,497.962 C268.709,507.103 262.439,511.966 250.603,511.966 z" fill="#454545"/>
    <path d="M398.548,524.095 C418.001,524.095 431.243,513.841 434.466,496.38 L421.399,496.38 C418.763,506.575 410.384,512.61 398.606,512.61 C383.079,512.61 373.235,500.13 373.235,480.384 C373.235,460.813 383.196,448.216 398.548,448.216 C410.032,448.216 419.056,455.306 421.399,466.146 L434.407,466.146 C432.181,448.509 417.708,436.731 398.548,436.731 C374.935,436.731 359.817,453.606 359.817,480.384 C359.817,507.337 374.817,524.095 398.548,524.095 z" fill="#454545"/>
    <path d="M515.828,438.138 L515.828,522.688 L545.652,522.688 C570.847,522.688 585.672,506.985 585.672,480.267 C585.672,453.606 570.789,438.138 545.652,438.138 z M528.953,449.446 L544.422,449.446 C562.293,449.446 572.254,460.462 572.254,480.384 C572.254,500.364 562.351,511.321 544.422,511.321 L528.953,511.321 z" fill="#454545"/>
    <path d="M726.978,511.321 L686.431,511.321 L686.431,485.071 L724.81,485.071 L724.81,474.173 L686.431,474.173 L686.431,449.446 L726.978,449.446 L726.978,438.138 L673.306,438.138 L673.306,522.688 L726.978,522.688 z" fill="#454545"/>
    <path d="M842.267,522.688 L842.267,487.298 L878.595,487.298 L878.595,476.224 L842.267,476.224 L842.267,449.446 L881.935,449.446 L881.935,438.138 L829.142,438.138 L829.142,522.688 z" fill="#454545"/>
    <path d="M368.384,162.688 L431.899,162.688 L431.899,151.321 L384.673,151.321 L384.673,150.911 L430.786,87.103 L430.786,78.138 L369.79,78.138 L369.79,89.446 L414.673,89.446 L414.673,89.915 L368.384,153.724 z" fill="#B2B2B2"/>
    <path d="M256.675,162.688 L256.675,128.06 L286.499,78.138 L271.968,78.138 L250.405,115.462 L249.995,115.462 L228.433,78.138 L213.784,78.138 L243.55,128.06 L243.55,162.688 z" fill="#B2B2B2"/>
    <path d="M63.55,161.587 L78.081,161.587 L99.409,129.36 L99.819,129.36 L120.854,161.587 L136.206,161.587 L108.081,119.634 L108.081,119.282 L136.733,77.036 L121.909,77.036 L100.815,109.731 L100.347,109.731 L79.487,77.036 L63.843,77.036 L91.616,118.813 L91.616,119.224 z" fill="#B2B2B2"/>
    <path d="M1306.704,523.102 L1306.704,438.551 L1293.579,438.551 L1293.579,523.102 z" fill="#B2B2B2"/>
    <path d="M1184.976,523.102 L1184.976,438.551 L1171.851,438.551 L1171.851,474.293 L1128.433,474.293 L1128.433,438.551 L1115.308,438.551 L1115.308,523.102 L1128.433,523.102 L1128.433,485.66 L1171.851,485.66 L1171.851,523.102 z" fill="#B2B2B2"/>
    <path d="M1038.081,487.945 L1038.081,479.332 L1003.276,479.332 L1003.276,489.938 L1025.132,489.938 L1025.132,491.402 C1024.956,504.234 1015.464,513.023 1001.753,513.023 C985.64,513.023 975.62,500.543 975.62,480.328 C975.62,460.465 985.347,448.629 1001.519,448.629 C1012.534,448.629 1020.796,454.664 1023.96,465.152 L1037.437,465.152 C1034.507,448.277 1020.269,437.145 1001.46,437.145 C977.378,437.145 962.202,453.785 962.202,480.445 C962.202,507.574 977.437,524.508 1001.636,524.508 C1024.546,524.508 1038.081,510.855 1038.081,487.945 z" fill="#B2B2B2"/>
    <g>
      <path d="M550.667,207.326 L550.623,368.074" fill-opacity="0" stroke="#454545" stroke-width="8" stroke-linecap="round"/>
      <path d="M543.423,368.072 L550.618,387.274 L557.823,368.076 z" fill="#454545" fill-opacity="1" stroke="#454545" stroke-width="8" stroke-opacity="1"/>
    </g>
    <g>
      <path d="M701.275,207.326 L701.231,368.074" fill-opacity="0" stroke="#454545" stroke-width="8" stroke-linecap="round"/>
      <path d="M694.031,368.072 L701.226,387.274 L708.431,368.076 z" fill="#454545" fill-opacity="1" stroke="#454545" stroke-width="8" stroke-opacity="1"/>
    </g>
    <g>
      <path d="M850.667,207.326 L850.623,368.074" fill-opacity="0" stroke="#454545" stroke-width="8" stroke-linecap="round"/>
      <path d="M843.423,368.072 L850.618,387.274 L857.823,368.076 z" fill="#454545" fill-opacity="1" stroke="#454545" stroke-width="8" stroke-opacity="1"/>
    </g>
    <g>
      <path d="M1000.667,207.326 L1000.623,368.074" fill-opacity="0" stroke="#B2B2B2" stroke-width="8" stroke-dasharray="16,16" stroke-linecap="round"/>
      <path d="M993.423,368.072 L1000.618,387.274 L1007.823,368.076 z" fill="#B2B2B2" fill-opacity="1" stroke="#B2B2B2" stroke-width="8" stroke-opacity="1"/>
    </g>
    <g>
      <path d="M1150.667,207.326 L1150.623,368.074" fill-opacity="0" stroke="#B2B2B2" stroke-width="8" stroke-dasharray="16,16" stroke-linecap="round"/>
      <path d="M1143.423,368.072 L1150.618,387.274 L1157.823,368.076 z" fill="#B2B2B2" fill-opacity="1" stroke="#B2B2B2" stroke-width="8" stroke-opacity="1"/>
    </g>
    <g>
      <path d="M1300.667,211.351 L1300.623,372.099" fill-opacity="0" stroke="#B2B2B2" stroke-width="8" stroke-dasharray="16,16" stroke-linecap="round"/>
      <path d="M1293.423,372.097 L1300.618,391.299 L1307.823,372.101 z" fill="#B2B2B2" fill-opacity="1" stroke="#B2B2B2" stroke-width="8" stroke-opacity="1"/>
    </g>
    <g>
      <path d="M400.667,207.326 L400.623,368.074" fill-opacity="0" stroke="#B2B2B2" stroke-width="8" stroke-dasharray="16,16" stroke-linecap="round"/>
      <path d="M393.423,368.072 L400.618,387.274 L407.823,368.076 z" fill="#B2B2B2" fill-opacity="1" stroke="#B2B2B2" stroke-width="8" stroke-opacity="1"/>
    </g>
    <g>
      <path d="M251.275,207.326 L251.231,368.074" fill-opacity="0" stroke="#B2B2B2" stroke-width="8" stroke-dasharray="16,16" stroke-linecap="round"/>
      <path d="M244.031,368.072 L251.226,387.274 L258.431,368.076 z" fill="#B2B2B2" fill-opacity="1" stroke="#B2B2B2" stroke-width="8" stroke-opacity="1"/>
    </g>
    <g>
      <path d="M101.275,207.326 L101.231,368.074" fill-opacity="0" stroke="#B2B2B2" stroke-width="8" stroke-dasharray="16,16" stroke-linecap="round"/>
      <path d="M94.031,368.072 L101.226,387.274 L108.431,368.076 z" fill="#B2B2B2" fill-opacity="1" stroke="#B2B2B2" stroke-width="8" stroke-opacity="1"/>
    </g>
  </g>
</svg>
