<!--?xml version="1.0" encoding="UTF-8"?-->

<svg version="1.1" xmlns="http://www.w3.org/2000/svg" xmlns:xlink="http://www.w3.org/1999/xlink" x="0" y="0" width="1400" height="600" viewBox="0, 0, 1400, 600" style="">
  <g id="Livello_1">
    <path d="M932.657,404.674 L1070.343,404.674 C1073.743,404.674 1076.5,407.066 1076.5,410.016 L1076.5,549.331 C1076.5,552.282 1073.743,554.674 1070.343,554.674 L932.657,554.674 C929.257,554.674 926.5,552.282 926.5,549.331 L926.5,410.016 C926.5,407.066 929.257,404.674 932.657,404.674 z" fill-opacity="0" stroke="#B2B2B2" stroke-width="8" stroke-dasharray="16,16" class="YEUwAyPY_0"></path>
    <path d="M782.657,45.087 L920.343,45.087 C923.743,45.087 926.5,47.479 926.5,50.43 L926.5,189.744 C926.5,192.695 923.743,195.087 920.343,195.087 L782.657,195.087 C779.257,195.087 776.5,192.695 776.5,189.744 L776.5,50.43 C776.5,47.479 779.257,45.087 782.657,45.087 z" fill-opacity="0" stroke="#454545" stroke-width="8" class="YEUwAyPY_1"></path>
    <path d="M932.657,45.087 L1070.343,45.087 C1073.743,45.087 1076.5,47.479 1076.5,50.43 L1076.5,189.744 C1076.5,192.695 1073.743,195.087 1070.343,195.087 L932.657,195.087 C929.257,195.087 926.5,192.695 926.5,189.744 L926.5,50.43 C926.5,47.479 929.257,45.087 932.657,45.087 z" fill-opacity="0" stroke="#454545" stroke-width="8" class="YEUwAyPY_2"></path>
    <path d="M1082.657,44.812 L1220.343,44.812 C1223.743,44.812 1226.5,47.204 1226.5,50.154 L1226.5,189.469 C1226.5,192.42 1223.743,194.812 1220.343,194.812 L1082.657,194.812 C1079.257,194.812 1076.5,192.42 1076.5,189.469 L1076.5,50.154 C1076.5,47.204 1079.257,44.812 1082.657,44.812 z" fill-opacity="0" stroke="#454545" stroke-width="8" class="YEUwAyPY_3"></path>
    <g>
      <path d="M632.657,44.812 L770.343,44.812 C773.743,44.812 776.5,47.204 776.5,50.154 L776.5,189.469 C776.5,192.42 773.743,194.812 770.343,194.812 L632.657,194.812 C629.257,194.812 626.5,192.42 626.5,189.469 L626.5,50.154 C626.5,47.204 629.257,44.812 632.657,44.812 z" fill="#BCBCBC" fill-opacity="0.7" class="YEUwAyPY_4"></path>
      <path d="M632.657,44.812 L770.343,44.812 C773.743,44.812 776.5,47.204 776.5,50.154 L776.5,189.469 C776.5,192.42 773.743,194.812 770.343,194.812 L632.657,194.812 C629.257,194.812 626.5,192.42 626.5,189.469 L626.5,50.154 C626.5,47.204 629.257,44.812 632.657,44.812 z" fill-opacity="0" stroke="#454545" stroke-width="8" class="YEUwAyPY_5"></path>
    </g>
    <path d="M575.339,161.587 L589.225,161.587 L558.698,77.036 L544.518,77.036 L513.991,161.587 L527.643,161.587 L535.378,138.735 L567.604,138.735 z M551.315,91.099 L551.667,91.099 L564.264,128.188 L538.717,128.188 z" fill="#454545" class="YEUwAyPY_6"></path>
    <path d="M1232.657,45.087 L1370.343,45.087 C1373.743,45.087 1376.5,47.479 1376.5,50.43 L1376.5,189.744 C1376.5,192.695 1373.743,195.087 1370.343,195.087 L1232.657,195.087 C1229.257,195.087 1226.5,192.695 1226.5,189.744 L1226.5,50.43 C1226.5,47.479 1229.257,45.087 1232.657,45.087 z" fill-opacity="0" stroke="#454545" stroke-width="8" class="YEUwAyPY_7"></path>
    <path d="M332.657,45.5 L470.343,45.5 C473.743,45.5 476.5,47.892 476.5,50.843 L476.5,190.157 C476.5,193.108 473.743,195.5 470.343,195.5 L332.657,195.5 C329.257,195.5 326.5,193.108 326.5,190.157 L326.5,50.843 C326.5,47.892 329.257,45.5 332.657,45.5 z" fill-opacity="0" stroke="#B2B2B2" stroke-width="8" stroke-dasharray="16,16" class="YEUwAyPY_8"></path>
    <path d="M482.657,45.087 L620.343,45.087 C623.743,45.087 626.5,47.479 626.5,50.43 L626.5,189.744 C626.5,192.695 623.743,195.087 620.343,195.087 L482.657,195.087 C479.257,195.087 476.5,192.695 476.5,189.744 L476.5,50.43 C476.5,47.479 479.257,45.087 482.657,45.087 z" fill-opacity="0" stroke="#454545" stroke-width="8" class="YEUwAyPY_9"></path>
    <path d="M182.657,44.949 L320.343,44.949 C323.743,44.949 326.5,47.341 326.5,50.292 L326.5,189.607 C326.5,192.557 323.743,194.949 320.343,194.949 L182.657,194.949 C179.257,194.949 176.5,192.557 176.5,189.607 L176.5,50.292 C176.5,47.341 179.257,44.949 182.657,44.949 z" fill-opacity="0" stroke="#B2B2B2" stroke-width="8" stroke-dasharray="16,16" class="YEUwAyPY_10"></path>
    <path d="M32.657,44.674 L170.343,44.674 C173.743,44.674 176.5,47.066 176.5,50.016 L176.5,189.331 C176.5,192.282 173.743,194.674 170.343,194.674 L32.657,194.674 C29.257,194.674 26.5,192.282 26.5,189.331 L26.5,50.016 C26.5,47.066 29.257,44.674 32.657,44.674 z" fill-opacity="0" stroke="#B2B2B2" stroke-width="8" stroke-dasharray="16,16" class="YEUwAyPY_11"></path>
    <path d="M332.657,405.087 L470.343,405.087 C473.743,405.087 476.5,407.479 476.5,410.43 L476.5,549.744 C476.5,552.695 473.743,555.087 470.343,555.087 L332.657,555.087 C329.257,555.087 326.5,552.695 326.5,549.744 L326.5,410.43 C326.5,407.479 329.257,405.087 332.657,405.087 z" fill-opacity="0" stroke="#454545" stroke-width="8" class="YEUwAyPY_12"></path>
    <path d="M482.657,405.087 L620.343,405.087 C623.743,405.087 626.5,407.479 626.5,410.43 L626.5,549.744 C626.5,552.695 623.743,555.087 620.343,555.087 L482.657,555.087 C479.257,555.087 476.5,552.695 476.5,549.744 L476.5,410.43 C476.5,407.479 479.257,405.087 482.657,405.087 z" fill-opacity="0" stroke="#454545" stroke-width="8" class="YEUwAyPY_13"></path>
    <g>
      <path d="M632.657,404.812 L770.343,404.812 C773.743,404.812 776.5,407.203 776.5,410.154 L776.5,549.469 C776.5,552.42 773.743,554.812 770.343,554.812 L632.657,554.812 C629.257,554.812 626.5,552.42 626.5,549.469 L626.5,410.154 C626.5,407.203 629.257,404.812 632.657,404.812 z" fill="#BCBCBC" fill-opacity="0.7" class="YEUwAyPY_14"></path>
      <path d="M632.657,404.812 L770.343,404.812 C773.743,404.812 776.5,407.203 776.5,410.154 L776.5,549.469 C776.5,552.42 773.743,554.812 770.343,554.812 L632.657,554.812 C629.257,554.812 626.5,552.42 626.5,549.469 L626.5,410.154 C626.5,407.203 629.257,404.812 632.657,404.812 z" fill-opacity="0" stroke="#454545" stroke-width="8" class="YEUwAyPY_15"></path>
    </g>
    <path d="M182.374,404.812 L320.06,404.812 C323.46,404.812 326.217,407.203 326.217,410.154 L326.217,549.469 C326.217,552.42 323.46,554.812 320.06,554.812 L182.374,554.812 C178.973,554.812 176.217,552.42 176.217,549.469 L176.217,410.154 C176.217,407.203 178.973,404.812 182.374,404.812 z" fill-opacity="0" stroke="#454545" stroke-width="8" class="YEUwAyPY_16"></path>
    <path d="M782.657,405.087 L920.343,405.087 C923.743,405.087 926.5,407.479 926.5,410.43 L926.5,549.744 C926.5,552.695 923.743,555.087 920.343,555.087 L782.657,555.087 C779.257,555.087 776.5,552.695 776.5,549.744 L776.5,410.43 C776.5,407.479 779.257,405.087 782.657,405.087 z" fill-opacity="0" stroke="#454545" stroke-width="8" class="YEUwAyPY_17"></path>
    <path d="M32.374,405.087 L170.06,405.087 C173.46,405.087 176.217,407.479 176.217,410.43 L176.217,549.744 C176.217,552.695 173.46,555.087 170.06,555.087 L32.374,555.087 C28.973,555.087 26.217,552.695 26.217,549.744 L26.217,410.43 C26.217,407.479 28.973,405.087 32.374,405.087 z" fill-opacity="0" stroke="#454545" stroke-width="8" class="YEUwAyPY_18"></path>
    <path d="M1232.657,405.5 L1370.343,405.5 C1373.743,405.5 1376.5,407.892 1376.5,410.843 L1376.5,550.157 C1376.5,553.108 1373.743,555.5 1370.343,555.5 L1232.657,555.5 C1229.257,555.5 1226.5,553.108 1226.5,550.157 L1226.5,410.843 C1226.5,407.892 1229.257,405.5 1232.657,405.5 z" fill-opacity="0" stroke="#B2B2B2" stroke-width="8" stroke-dasharray="16,16" class="YEUwAyPY_19"></path>
    <path d="M1082.657,404.949 L1220.343,404.949 C1223.743,404.949 1226.5,407.341 1226.5,410.292 L1226.5,549.607 C1226.5,552.557 1223.743,554.949 1220.343,554.949 L1082.657,554.949 C1079.257,554.949 1076.5,552.557 1076.5,549.607 L1076.5,410.292 C1076.5,407.341 1079.257,404.949 1082.657,404.949 z" fill-opacity="0" stroke="#B2B2B2" stroke-width="8" stroke-dasharray="16,16" class="YEUwAyPY_20"></path>
    <path d="M704.157,161.174 C722.145,161.174 732.985,152.15 732.985,137.268 C732.985,126.018 725.251,117.873 713.766,116.584 L713.766,116.115 C722.204,114.709 728.825,106.682 728.825,97.717 C728.825,84.943 718.981,76.623 703.981,76.623 L670.231,76.623 L670.231,161.174 z M683.356,87.346 L700.817,87.346 C710.309,87.346 715.7,91.682 715.7,99.533 C715.7,107.912 709.43,112.6 698.063,112.6 L683.356,112.6 z M683.356,150.451 L683.356,122.619 L700.7,122.619 C713.122,122.619 719.567,127.307 719.567,136.447 C719.567,145.588 713.297,150.451 701.462,150.451 z" fill="#454545" class="YEUwAyPY_21"></path>
    <path d="M849.406,162.58 C868.859,162.58 882.102,152.326 885.324,134.865 L872.258,134.865 C869.621,145.061 861.242,151.096 849.465,151.096 C833.938,151.096 824.094,138.615 824.094,118.869 C824.094,99.299 834.055,86.701 849.406,86.701 C860.891,86.701 869.914,93.791 872.258,104.631 L885.266,104.631 C883.039,86.994 868.566,75.217 849.406,75.217 C825.793,75.217 810.676,92.092 810.676,118.869 C810.676,145.822 825.676,162.58 849.406,162.58 z" fill="#454545" class="YEUwAyPY_22"></path>
    <path d="M966.686,76.623 L966.686,161.174 L996.51,161.174 C1021.706,161.174 1036.53,145.471 1036.53,118.752 C1036.53,92.092 1021.647,76.623 996.51,76.623 z M979.811,87.932 L995.28,87.932 C1013.151,87.932 1023.112,98.947 1023.112,118.869 C1023.112,138.85 1013.21,149.807 995.28,149.807 L979.811,149.807 z" fill="#454545" class="YEUwAyPY_23"></path>
    <path d="M1177.836,149.807 L1137.289,149.807 L1137.289,123.557 L1175.668,123.557 L1175.668,112.658 L1137.289,112.658 L1137.289,87.932 L1177.836,87.932 L1177.836,76.623 L1124.164,76.623 L1124.164,161.174 L1177.836,161.174 z" fill="#454545" class="YEUwAyPY_24"></path>
    <path d="M1293.125,161.174 L1293.125,125.783 L1329.453,125.783 L1329.453,114.709 L1293.125,114.709 L1293.125,87.932 L1332.793,87.932 L1332.793,76.623 L1280,76.623 L1280,161.174 z" fill="#454545" class="YEUwAyPY_25"></path>
    <path d="M369.242,162.275 L432.758,162.275 L432.758,150.908 L385.531,150.908 L385.531,150.498 L431.645,86.689 L431.645,77.725 L370.648,77.725 L370.648,89.033 L415.531,89.033 L415.531,89.502 L369.242,153.311 z" fill="#B2B2B2" class="YEUwAyPY_26"></path>
    <path d="M257.533,162.275 L257.533,127.646 L287.357,77.725 L272.826,77.725 L251.264,115.049 L250.854,115.049 L229.291,77.725 L214.643,77.725 L244.408,127.646 L244.408,162.275 z" fill="#B2B2B2" class="YEUwAyPY_27"></path>
    <path d="M64.408,161.174 L78.939,161.174 L100.268,128.947 L100.678,128.947 L121.713,161.174 L137.064,161.174 L108.939,119.221 L108.939,118.869 L137.592,76.623 L122.768,76.623 L101.674,109.318 L101.205,109.318 L80.346,76.623 L64.701,76.623 L92.475,118.4 L92.475,118.811 z" fill="#B2B2B2" class="YEUwAyPY_28"></path>
    <g>
      <path d="M551.525,206.913 L551.482,367.661" fill-opacity="0" stroke="#454545" stroke-width="8" stroke-linecap="round" class="YEUwAyPY_29"></path>
      <path d="M544.282,367.659 L551.476,386.861 L558.682,367.663 z" fill="#454545" fill-opacity="1" stroke="#454545" stroke-width="8" stroke-opacity="1" class="YEUwAyPY_30"></path>
    </g>
    <g>
      <path d="M702.133,206.913 L702.09,367.661" fill-opacity="0" stroke="#454545" stroke-width="8" stroke-linecap="round" class="YEUwAyPY_31"></path>
      <path d="M694.89,367.659 L702.084,386.861 L709.29,367.663 z" fill="#454545" fill-opacity="1" stroke="#454545" stroke-width="8" stroke-opacity="1" class="YEUwAyPY_32"></path>
    </g>
    <g>
      <path d="M851.525,206.913 L851.482,367.661" fill-opacity="0" stroke="#454545" stroke-width="8" stroke-linecap="round" class="YEUwAyPY_33"></path>
      <path d="M844.282,367.659 L851.476,386.861 L858.682,367.663 z" fill="#454545" fill-opacity="1" stroke="#454545" stroke-width="8" stroke-opacity="1" class="YEUwAyPY_34"></path>
    </g>
    <g>
      <path d="M1001.525,206.913 L1001.482,367.661" fill-opacity="0" stroke="#B2B2B2" stroke-width="8" stroke-dasharray="16,16" stroke-linecap="round" class="YEUwAyPY_35"></path>
      <path d="M994.282,367.659 L1001.476,386.861 L1008.682,367.663 z" fill="#B2B2B2" fill-opacity="1" stroke="#B2B2B2" stroke-width="8" stroke-opacity="1" class="YEUwAyPY_36"></path>
    </g>
    <g>
      <path d="M1151.525,206.913 L1151.482,367.661" fill-opacity="0" stroke="#B2B2B2" stroke-width="8" stroke-dasharray="16,16" stroke-linecap="round" class="YEUwAyPY_37"></path>
      <path d="M1144.282,367.659 L1151.476,386.861 L1158.682,367.663 z" fill="#B2B2B2" fill-opacity="1" stroke="#B2B2B2" stroke-width="8" stroke-opacity="1" class="YEUwAyPY_38"></path>
    </g>
    <g>
      <path d="M1301.525,210.938 L1301.482,371.686" fill-opacity="0" stroke="#B2B2B2" stroke-width="8" stroke-dasharray="16,16" stroke-linecap="round" class="YEUwAyPY_39"></path>
      <path d="M1294.282,371.684 L1301.476,390.886 L1308.682,371.688 z" fill="#B2B2B2" fill-opacity="1" stroke="#B2B2B2" stroke-width="8" stroke-opacity="1" class="YEUwAyPY_40"></path>
    </g>
    <g>
      <path d="M401.525,206.913 L401.482,367.661" fill-opacity="0" stroke="#B2B2B2" stroke-width="8" stroke-dasharray="16,16" stroke-linecap="round" class="YEUwAyPY_41"></path>
      <path d="M394.282,367.659 L401.476,386.861 L408.682,367.663 z" fill="#B2B2B2" fill-opacity="1" stroke="#B2B2B2" stroke-width="8" stroke-opacity="1" class="YEUwAyPY_42"></path>
    </g>
    <g>
      <path d="M252.133,206.913 L252.09,367.661" fill-opacity="0" stroke="#B2B2B2" stroke-width="8" stroke-dasharray="16,16" stroke-linecap="round" class="YEUwAyPY_43"></path>
      <path d="M244.89,367.659 L252.084,386.861 L259.29,367.663 z" fill="#B2B2B2" fill-opacity="1" stroke="#B2B2B2" stroke-width="8" stroke-opacity="1" class="YEUwAyPY_44"></path>
    </g>
    <g>
      <path d="M102.133,206.913 L102.09,367.661" fill-opacity="0" stroke="#B2B2B2" stroke-width="8" stroke-dasharray="16,16" stroke-linecap="round" class="YEUwAyPY_45"></path>
      <path d="M94.89,367.659 L102.084,386.861 L109.29,367.663 z" fill="#B2B2B2" fill-opacity="1" stroke="#B2B2B2" stroke-width="8" stroke-opacity="1" class="YEUwAyPY_46"></path>
    </g>
    <path d="M979.262,521.174 L993.031,521.174 L1029.77,447.99 L1029.77,436.623 L972.23,436.623 L972.23,447.697 L1016.82,447.697 L1016.82,447.99 z" fill="#BABABA" class="YEUwAyPY_47"></path>
    <path d="M1151,523.444 C1169.75,523.444 1182.992,513.366 1182.992,499.011 C1182.992,488.288 1175.434,479.616 1164.184,477.272 L1164.184,476.979 C1173.559,474.284 1179.535,467.019 1179.535,458.054 C1179.535,445.104 1167.641,435.729 1151,435.729 C1134.418,435.729 1122.406,445.163 1122.406,457.995 C1122.406,467.077 1128.441,474.401 1137.816,476.979 L1137.816,477.272 C1126.625,479.616 1119.008,488.229 1119.008,499.011 C1119.008,513.308 1132.133,523.444 1151,523.444 z M1151,512.897 C1140.219,512.897 1132.543,506.687 1132.543,498.073 C1132.543,489.401 1140.219,483.132 1151,483.132 C1161.781,483.132 1169.398,489.343 1169.398,498.073 C1169.398,506.687 1161.781,512.897 1151,512.897 z M1151,472.585 C1141.801,472.585 1135.414,467.077 1135.414,459.401 C1135.414,451.667 1141.801,446.159 1151,446.159 C1160.141,446.159 1166.586,451.667 1166.586,459.401 C1166.586,467.077 1160.082,472.585 1151,472.585 z" fill="#BABABA" class="YEUwAyPY_48"></path>
    <path d="M1299.33,524.396 C1320.541,524.396 1333.08,507.639 1333.08,479.338 C1333.08,469.436 1331.322,461.115 1327.865,454.377 C1322.416,443.01 1312.338,436.623 1299.799,436.623 C1281.928,436.623 1268.92,448.928 1268.92,465.861 C1268.92,481.916 1280.932,493.811 1296.986,493.811 C1307.885,493.811 1316.791,488.303 1320.189,479.982 C1320.189,479.982 1320.248,479.982 1320.248,479.982 C1320.248,479.982 1320.307,479.982 1320.307,479.982 C1320.365,479.982 1320.424,479.982 1320.424,479.982 C1320.424,501.311 1312.689,513.498 1299.506,513.498 C1291.713,513.498 1285.268,508.869 1283.275,501.955 L1270.092,501.955 C1272.611,515.373 1284.271,524.396 1299.33,524.396 z M1299.799,483.088 C1289.545,483.088 1281.986,475.588 1281.986,465.451 C1281.986,455.607 1289.896,447.814 1299.975,447.814 C1310.053,447.814 1317.904,455.666 1317.904,465.686 C1317.904,475.646 1310.17,483.088 1299.799,483.088 z" fill="#BABABA" class="YEUwAyPY_49"></path>
    <path d="M701.11,523.066 C719.333,523.066 732.106,511.055 732.106,493.711 C732.106,477.305 720.446,465.41 704.215,465.41 C695.954,465.41 689.04,468.633 685.348,473.965 L685.055,473.965 L687.399,448.008 L727.184,448.008 L727.184,436.934 L676.852,436.934 L672.399,484.746 L684.411,484.746 C687.692,479.18 694.02,475.84 701.344,475.84 C711.891,475.84 719.274,483.457 719.274,494.062 C719.274,504.668 711.891,512.109 701.227,512.109 C691.794,512.109 684.587,506.367 683.649,497.988 L671.11,497.988 C671.872,512.754 684.235,523.066 701.11,523.066 z" fill="#454545" class="YEUwAyPY_50"></path>
    <path d="M560.053,521.862 L572.65,521.862 L572.65,505.163 L584.252,505.163 L584.252,494.147 L572.65,494.147 L572.65,437.312 L553.666,437.312 C534.623,464.851 525.014,480.026 517.748,493.679 L517.748,505.163 L560.053,505.163 z M529.994,494.03 C536.732,481.784 545.287,468.601 559.936,447.448 L560.17,447.448 L560.17,494.323 L529.994,494.323 z" fill="#454545" class="YEUwAyPY_51"></path>
    <path d="M389.955,483.601 L400.502,483.601 C411.635,483.601 418.549,489.226 418.549,498.366 C418.549,506.628 411.166,512.487 400.854,512.487 C390.189,512.487 383.51,506.921 382.689,498.835 L370.092,498.835 C370.912,513.425 382.631,523.444 400.854,523.444 C418.49,523.444 431.908,513.308 431.908,498.542 C431.908,486.706 423.705,478.913 410.99,478.034 L410.99,477.8 C421.479,475.925 428.393,468.366 428.393,457.819 C428.393,444.812 416.732,435.729 400.736,435.729 C383.979,435.729 372.787,445.28 371.791,460.104 L384.154,460.104 C384.916,451.784 391.01,446.511 400.15,446.511 C410.17,446.511 415.561,451.726 415.561,459.577 C415.561,467.546 409.291,473.288 400.15,473.288 L389.955,473.288 z" fill="#454545" class="YEUwAyPY_52"></path>
    <path d="M221.449,463.301 L221.449,463.418 L233.871,463.418 L233.871,463.242 C233.871,454.453 240.844,447.773 250.102,447.773 C258.891,447.773 265.688,453.75 265.688,461.25 C265.688,467.871 262.992,472.324 252.68,483.047 L222.152,514.16 L222.152,523.066 L279.984,523.066 L279.984,511.992 L239.848,511.992 L239.848,511.699 L261,490.43 C273.363,477.773 278.637,470.449 278.637,460.605 C278.637,447.188 266.625,436.934 250.512,436.934 C233.695,436.934 221.449,448.066 221.449,463.301 z" fill="#454545" class="YEUwAyPY_53"></path>
    <path d="M105.492,521.174 L118.324,521.174 L118.324,436.623 L105.375,436.623 L83.109,452.443 L83.109,465.334 L105.199,449.631 L105.492,449.631 z" fill="#454545" class="YEUwAyPY_54"></path>
    <path d="M852.172,521.174 C870.102,521.174 883.051,508.869 883.051,491.936 C883.051,475.881 871.098,463.986 854.984,463.986 C844.438,463.986 835.473,469.494 831.781,477.697 L831.547,477.697 C831.605,456.428 839.34,444.357 852.641,444.357 C860.375,444.357 866.703,448.869 868.754,455.783 L881.879,455.783 C879.301,442.307 867.699,433.342 852.758,433.342 C831.605,433.342 818.949,450.1 818.949,478.4 C818.949,488.303 820.707,496.623 824.164,503.361 C829.672,514.787 839.691,521.174 852.172,521.174 z M852.055,510.1 C841.977,510.1 834.184,502.131 834.184,492.111 C834.184,482.092 841.859,474.709 852.172,474.709 C862.543,474.709 869.984,482.092 869.984,492.346 C869.984,502.248 862.016,510.1 852.055,510.1 z" fill="#454545" class="YEUwAyPY_55"></path>
  </g>
<style data-made-with="vivus-instant">.YEUwAyPY_0{stroke-dasharray:591 593;stroke-dashoffset:592;animation:YEUwAyPY_draw 1666ms ease-in-out 0ms forwards;}.YEUwAyPY_1{stroke-dasharray:591 593;stroke-dashoffset:592;animation:YEUwAyPY_draw 1666ms ease-in-out 15ms forwards;}.YEUwAyPY_2{stroke-dasharray:591 593;stroke-dashoffset:592;animation:YEUwAyPY_draw 1666ms ease-in-out 30ms forwards;}.YEUwAyPY_3{stroke-dasharray:591 593;stroke-dashoffset:592;animation:YEUwAyPY_draw 1666ms ease-in-out 45ms forwards;}.YEUwAyPY_4{stroke-dasharray:591 593;stroke-dashoffset:592;animation:YEUwAyPY_draw 1666ms ease-in-out 60ms forwards;}.YEUwAyPY_5{stroke-dasharray:591 593;stroke-dashoffset:592;animation:YEUwAyPY_draw 1666ms ease-in-out 75ms forwards;}.YEUwAyPY_6{stroke-dasharray:407 409;stroke-dashoffset:408;animation:YEUwAyPY_draw 1666ms ease-in-out 90ms forwards;}.YEUwAyPY_7{stroke-dasharray:591 593;stroke-dashoffset:592;animation:YEUwAyPY_draw 1666ms ease-in-out 106ms forwards;}.YEUwAyPY_8{stroke-dasharray:591 593;stroke-dashoffset:592;animation:YEUwAyPY_draw 1666ms ease-in-out 121ms forwards;}.YEUwAyPY_9{stroke-dasharray:591 593;stroke-dashoffset:592;animation:YEUwAyPY_draw 1666ms ease-in-out 136ms forwards;}.YEUwAyPY_10{stroke-dasharray:591 593;stroke-dashoffset:592;animation:YEUwAyPY_draw 1666ms ease-in-out 151ms forwards;}.YEUwAyPY_11{stroke-dasharray:591 593;stroke-dashoffset:592;animation:YEUwAyPY_draw 1666ms ease-in-out 166ms forwards;}.YEUwAyPY_12{stroke-dasharray:591 593;stroke-dashoffset:592;animation:YEUwAyPY_draw 1666ms ease-in-out 181ms forwards;}.YEUwAyPY_13{stroke-dasharray:591 593;stroke-dashoffset:592;animation:YEUwAyPY_draw 1666ms ease-in-out 196ms forwards;}.YEUwAyPY_14{stroke-dasharray:591 593;stroke-dashoffset:592;animation:YEUwAyPY_draw 1666ms ease-in-out 212ms forwards;}.YEUwAyPY_15{stroke-dasharray:591 593;stroke-dashoffset:592;animation:YEUwAyPY_draw 1666ms ease-in-out 227ms forwards;}.YEUwAyPY_16{stroke-dasharray:591 593;stroke-dashoffset:592;animation:YEUwAyPY_draw 1666ms ease-in-out 242ms forwards;}.YEUwAyPY_17{stroke-dasharray:591 593;stroke-dashoffset:592;animation:YEUwAyPY_draw 1666ms ease-in-out 257ms forwards;}.YEUwAyPY_18{stroke-dasharray:591 593;stroke-dashoffset:592;animation:YEUwAyPY_draw 1666ms ease-in-out 272ms forwards;}.YEUwAyPY_19{stroke-dasharray:591 593;stroke-dashoffset:592;animation:YEUwAyPY_draw 1666ms ease-in-out 287ms forwards;}.YEUwAyPY_20{stroke-dasharray:591 593;stroke-dashoffset:592;animation:YEUwAyPY_draw 1666ms ease-in-out 303ms forwards;}.YEUwAyPY_21{stroke-dasharray:509 511;stroke-dashoffset:510;animation:YEUwAyPY_draw 1666ms ease-in-out 318ms forwards;}.YEUwAyPY_22{stroke-dasharray:413 415;stroke-dashoffset:414;animation:YEUwAyPY_draw 1666ms ease-in-out 333ms forwards;}.YEUwAyPY_23{stroke-dasharray:465 467;stroke-dashoffset:466;animation:YEUwAyPY_draw 1666ms ease-in-out 348ms forwards;}.YEUwAyPY_24{stroke-dasharray:435 437;stroke-dashoffset:436;animation:YEUwAyPY_draw 1666ms ease-in-out 363ms forwards;}.YEUwAyPY_25{stroke-dasharray:348 350;stroke-dashoffset:349;animation:YEUwAyPY_draw 1666ms ease-in-out 378ms forwards;}.YEUwAyPY_26{stroke-dasharray:416 418;stroke-dashoffset:417;animation:YEUwAyPY_draw 1666ms ease-in-out 393ms forwards;}.YEUwAyPY_27{stroke-dasharray:315 317;stroke-dashoffset:316;animation:YEUwAyPY_draw 1666ms ease-in-out 409ms forwards;}.YEUwAyPY_28{stroke-dasharray:420 422;stroke-dashoffset:421;animation:YEUwAyPY_draw 1666ms ease-in-out 424ms forwards;}.YEUwAyPY_29{stroke-dasharray:161 163;stroke-dashoffset:162;animation:YEUwAyPY_draw 1666ms ease-in-out 439ms forwards;}.YEUwAyPY_30{stroke-dasharray:56 58;stroke-dashoffset:57;animation:YEUwAyPY_draw 1666ms ease-in-out 454ms forwards;}.YEUwAyPY_31{stroke-dasharray:161 163;stroke-dashoffset:162;animation:YEUwAyPY_draw 1666ms ease-in-out 469ms forwards;}.YEUwAyPY_32{stroke-dasharray:56 58;stroke-dashoffset:57;animation:YEUwAyPY_draw 1666ms ease-in-out 484ms forwards;}.YEUwAyPY_33{stroke-dasharray:161 163;stroke-dashoffset:162;animation:YEUwAyPY_draw 1666ms ease-in-out 500ms forwards;}.YEUwAyPY_34{stroke-dasharray:56 58;stroke-dashoffset:57;animation:YEUwAyPY_draw 1666ms ease-in-out 515ms forwards;}.YEUwAyPY_35{stroke-dasharray:161 163;stroke-dashoffset:162;animation:YEUwAyPY_draw 1666ms ease-in-out 530ms forwards;}.YEUwAyPY_36{stroke-dasharray:56 58;stroke-dashoffset:57;animation:YEUwAyPY_draw 1666ms ease-in-out 545ms forwards;}.YEUwAyPY_37{stroke-dasharray:161 163;stroke-dashoffset:162;animation:YEUwAyPY_draw 1666ms ease-in-out 560ms forwards;}.YEUwAyPY_38{stroke-dasharray:56 58;stroke-dashoffset:57;animation:YEUwAyPY_draw 1666ms ease-in-out 575ms forwards;}.YEUwAyPY_39{stroke-dasharray:161 163;stroke-dashoffset:162;animation:YEUwAyPY_draw 1666ms ease-in-out 590ms forwards;}.YEUwAyPY_40{stroke-dasharray:56 58;stroke-dashoffset:57;animation:YEUwAyPY_draw 1666ms ease-in-out 606ms forwards;}.YEUwAyPY_41{stroke-dasharray:161 163;stroke-dashoffset:162;animation:YEUwAyPY_draw 1666ms ease-in-out 621ms forwards;}.YEUwAyPY_42{stroke-dasharray:56 58;stroke-dashoffset:57;animation:YEUwAyPY_draw 1666ms ease-in-out 636ms forwards;}.YEUwAyPY_43{stroke-dasharray:161 163;stroke-dashoffset:162;animation:YEUwAyPY_draw 1666ms ease-in-out 651ms forwards;}.YEUwAyPY_44{stroke-dasharray:56 58;stroke-dashoffset:57;animation:YEUwAyPY_draw 1666ms ease-in-out 666ms forwards;}.YEUwAyPY_45{stroke-dasharray:161 163;stroke-dashoffset:162;animation:YEUwAyPY_draw 1666ms ease-in-out 681ms forwards;}.YEUwAyPY_46{stroke-dasharray:56 58;stroke-dashoffset:57;animation:YEUwAyPY_draw 1666ms ease-in-out 696ms forwards;}.YEUwAyPY_47{stroke-dasharray:303 305;stroke-dashoffset:304;animation:YEUwAyPY_draw 1666ms ease-in-out 712ms forwards;}.YEUwAyPY_48{stroke-dasharray:484 486;stroke-dashoffset:485;animation:YEUwAyPY_draw 1666ms ease-in-out 727ms forwards;}.YEUwAyPY_49{stroke-dasharray:477 479;stroke-dashoffset:478;animation:YEUwAyPY_draw 1666ms ease-in-out 742ms forwards;}.YEUwAyPY_50{stroke-dasharray:460 462;stroke-dashoffset:461;animation:YEUwAyPY_draw 1666ms ease-in-out 757ms forwards;}.YEUwAyPY_51{stroke-dasharray:410 412;stroke-dashoffset:411;animation:YEUwAyPY_draw 1666ms ease-in-out 772ms forwards;}.YEUwAyPY_52{stroke-dasharray:434 436;stroke-dashoffset:435;animation:YEUwAyPY_draw 1666ms ease-in-out 787ms forwards;}.YEUwAyPY_53{stroke-dasharray:399 401;stroke-dashoffset:400;animation:YEUwAyPY_draw 1666ms ease-in-out 803ms forwards;}.YEUwAyPY_54{stroke-dasharray:250 252;stroke-dashoffset:251;animation:YEUwAyPY_draw 1666ms ease-in-out 818ms forwards;}.YEUwAyPY_55{stroke-dasharray:476 478;stroke-dashoffset:477;animation:YEUwAyPY_draw 1666ms ease-in-out 833ms forwards;}@keyframes YEUwAyPY_draw{100%{stroke-dashoffset:0;}}@keyframes YEUwAyPY_fade{0%{stroke-opacity:1;}94.02985074626866%{stroke-opacity:1;}100%{stroke-opacity:0;}}</style></svg>
