<!--?xml version="1.0" encoding="UTF-8"?-->

<svg version="1.1" xmlns="http://www.w3.org/2000/svg" xmlns:xlink="http://www.w3.org/1999/xlink" x="0" y="0" width="1200" height="1000" viewBox="0, 0, 1200, 1000" style="">
  <g id="Livello_1">
    <g>
      <path d="M1042.394,619.133 C1060.616,619.133 1073.39,607.121 1073.39,589.777 C1073.39,573.371 1061.73,561.477 1045.499,561.477 C1037.238,561.477 1030.323,564.699 1026.632,570.031 L1026.339,570.031 L1028.683,544.074 L1068.468,544.074 L1068.468,533 L1018.136,533 L1013.683,580.813 L1025.695,580.813 C1028.976,575.246 1035.304,571.906 1042.628,571.906 C1053.175,571.906 1060.558,579.523 1060.558,590.129 C1060.558,600.734 1053.175,608.176 1042.511,608.176 C1033.077,608.176 1025.87,602.434 1024.933,594.055 L1012.394,594.055 C1013.156,608.82 1025.519,619.133 1042.394,619.133 z" fill="#BABABA" class="mEEoDPDg_0"></path>
      <path d="M1083.351,557.785 L1083.351,557.902 L1095.773,557.902 L1095.773,557.727 C1095.773,548.938 1102.745,542.258 1112.003,542.258 C1120.792,542.258 1127.589,548.234 1127.589,555.734 C1127.589,562.356 1124.894,566.809 1114.581,577.531 L1084.054,608.645 L1084.054,617.551 L1141.886,617.551 L1141.886,606.477 L1101.749,606.477 L1101.749,606.184 L1122.902,584.914 C1135.265,572.258 1140.538,564.934 1140.538,555.09 C1140.538,541.672 1128.527,531.418 1112.413,531.418 C1095.597,531.418 1083.351,542.551 1083.351,557.785 z" fill="#BABABA" class="mEEoDPDg_1"></path>
      <path d="M1008.797,501.051 L1146.483,501.051 C1149.883,501.051 1152.64,503.443 1152.64,506.393 L1152.64,645.708 C1152.64,648.659 1149.883,651.051 1146.483,651.051 L1008.797,651.051 C1005.396,651.051 1002.64,648.659 1002.64,645.708 L1002.64,506.393 C1002.64,503.443 1005.396,501.051 1008.797,501.051 z" fill-opacity="0" stroke="#BABABA" stroke-width="8" class="mEEoDPDg_2"></path>
    </g>
    <path d="M354.659,49.949 L492.345,49.949 C495.745,49.949 498.502,52.341 498.502,55.292 L498.502,194.607 C498.502,197.557 495.745,199.949 492.345,199.949 L354.659,199.949 C351.258,199.949 348.502,197.557 348.502,194.607 L348.502,55.292 C348.502,52.341 351.258,49.949 354.659,49.949 z" fill-opacity="0" stroke="#BABABA" stroke-width="8" class="mEEoDPDg_3"></path>
    <path d="M504.659,49.949 L642.345,49.949 C645.745,49.949 648.502,52.341 648.502,55.292 L648.502,194.607 C648.502,197.557 645.745,199.949 642.345,199.949 L504.659,199.949 C501.258,199.949 498.502,197.557 498.502,194.607 L498.502,55.292 C498.502,52.341 501.258,49.949 504.659,49.949 z" fill-opacity="0" stroke="#BABABA" stroke-width="8" class="mEEoDPDg_4"></path>
    <path d="M654.659,49.674 L792.345,49.674 C795.745,49.674 798.502,52.066 798.502,55.016 L798.502,194.331 C798.502,197.282 795.745,199.674 792.345,199.674 L654.659,199.674 C651.258,199.674 648.502,197.282 648.502,194.331 L648.502,55.016 C648.502,52.066 651.258,49.674 654.659,49.674 z" fill-opacity="0" stroke="#BABABA" stroke-width="8" class="mEEoDPDg_5"></path>
    <path d="M204.376,49.674 L342.061,49.674 C345.462,49.674 348.219,52.066 348.219,55.016 L348.219,194.331 C348.219,197.282 345.462,199.674 342.061,199.674 L204.376,199.674 C200.975,199.674 198.219,197.282 198.219,194.331 L198.219,55.016 C198.219,52.066 200.975,49.674 204.376,49.674 z" fill-opacity="0" stroke="#BABABA" stroke-width="8" class="mEEoDPDg_6"></path>
    <path d="M804.659,49.949 L942.345,49.949 C945.745,49.949 948.502,52.341 948.502,55.292 L948.502,194.607 C948.502,197.557 945.745,199.949 942.345,199.949 L804.659,199.949 C801.258,199.949 798.502,197.557 798.502,194.607 L798.502,55.292 C798.502,52.341 801.258,49.949 804.659,49.949 z" fill-opacity="0" stroke="#BABABA" stroke-width="8" class="mEEoDPDg_7"></path>
    <path d="M54.376,49.949 L192.061,49.949 C195.462,49.949 198.219,52.341 198.219,55.292 L198.219,194.607 C198.219,197.557 195.462,199.949 192.061,199.949 L54.376,199.949 C50.975,199.949 48.219,197.557 48.219,194.607 L48.219,55.292 C48.219,52.341 50.975,49.949 54.376,49.949 z" fill-opacity="0" stroke="#BABABA" stroke-width="8" class="mEEoDPDg_8"></path>
    <path d="M54.376,200.225 L192.061,200.225 C195.462,200.225 198.219,202.617 198.219,205.567 L198.219,344.882 C198.219,347.833 195.462,350.225 192.061,350.225 L54.376,350.225 C50.975,350.225 48.219,347.833 48.219,344.882 L48.219,205.567 C48.219,202.617 50.975,200.225 54.376,200.225 z" fill-opacity="0" stroke="#BABABA" stroke-width="8" class="mEEoDPDg_9"></path>
    <path d="M54.376,350.5 L192.061,350.5 C195.462,350.5 198.219,352.892 198.219,355.843 L198.219,495.157 C198.219,498.108 195.462,500.5 192.061,500.5 L54.376,500.5 C50.975,500.5 48.219,498.108 48.219,495.157 L48.219,355.843 C48.219,352.892 50.975,350.5 54.376,350.5 z" fill-opacity="0" stroke="#BABABA" stroke-width="8" class="mEEoDPDg_10"></path>
    <path d="M54.376,500.775 L192.061,500.775 C195.462,500.775 198.219,503.167 198.219,506.118 L198.219,645.433 C198.219,648.383 195.462,650.775 192.061,650.775 L54.376,650.775 C50.975,650.775 48.219,648.383 48.219,645.433 L48.219,506.118 C48.219,503.167 50.975,500.775 54.376,500.775 z" fill-opacity="0" stroke="#BABABA" stroke-width="8" class="mEEoDPDg_11"></path>
    <path d="M54.376,651.051 L192.061,651.051 C195.462,651.051 198.219,653.443 198.219,656.393 L198.219,795.708 C198.219,798.659 195.462,801.051 192.061,801.051 L54.376,801.051 C50.975,801.051 48.219,798.659 48.219,795.708 L48.219,656.393 C48.219,653.443 50.975,651.051 54.376,651.051 z" fill-opacity="0" stroke="#BABABA" stroke-width="8" class="mEEoDPDg_12"></path>
    <path d="M54.376,801.326 L192.061,801.326 C195.462,801.326 198.219,803.718 198.219,806.669 L198.219,945.984 C198.219,948.934 195.462,951.326 192.061,951.326 L54.376,951.326 C50.975,951.326 48.219,948.934 48.219,945.984 L48.219,806.669 C48.219,803.718 50.975,801.326 54.376,801.326 z" fill-opacity="0" stroke="#BABABA" stroke-width="8" class="mEEoDPDg_13"></path>
    <path d="M302.297,317.413 L316.184,317.413 L285.657,232.862 L271.477,232.862 L240.95,317.413 L254.602,317.413 L262.336,294.562 L294.563,294.562 z M278.274,246.925 L278.625,246.925 L291.223,284.015 L265.676,284.015 z" fill="#454545" class="mEEoDPDg_14"></path>
    <path d="M431.116,317 C449.104,317 459.944,307.977 459.944,293.094 C459.944,281.844 452.209,273.699 440.725,272.41 L440.725,271.941 C449.162,270.535 455.784,262.508 455.784,253.543 C455.784,240.77 445.94,232.449 430.94,232.449 L397.19,232.449 L397.19,317 z M410.315,243.172 L427.776,243.172 C437.268,243.172 442.659,247.508 442.659,255.359 C442.659,263.738 436.389,268.426 425.022,268.426 L410.315,268.426 z M410.315,306.277 L410.315,278.445 L427.659,278.445 C440.08,278.445 446.526,283.133 446.526,292.273 C446.526,301.414 440.256,306.277 428.42,306.277 z" fill="#454545" class="mEEoDPDg_15"></path>
    <path d="M576.365,318.406 C595.818,318.406 609.06,308.152 612.283,290.691 L599.217,290.691 C596.58,300.887 588.201,306.922 576.424,306.922 C560.896,306.922 551.052,294.441 551.052,274.695 C551.052,255.125 561.013,242.527 576.365,242.527 C587.849,242.527 596.873,249.617 599.217,260.457 L612.224,260.457 C609.998,242.82 595.525,231.043 576.365,231.043 C552.752,231.043 537.635,247.918 537.635,274.695 C537.635,301.648 552.635,318.406 576.365,318.406 z" fill="#454545" class="mEEoDPDg_16"></path>
    <path d="M904.795,305.633 L864.248,305.633 L864.248,279.383 L902.627,279.383 L902.627,268.484 L864.248,268.484 L864.248,243.758 L904.795,243.758 L904.795,232.449 L851.123,232.449 L851.123,317 L904.795,317 z" fill="#454545" class="mEEoDPDg_17"></path>
    <path d="M504.659,200.225 L642.345,200.225 C645.745,200.225 648.502,202.617 648.502,205.567 L648.502,344.882 C648.502,347.833 645.745,350.225 642.345,350.225 L504.659,350.225 C501.258,350.225 498.502,347.833 498.502,344.882 L498.502,205.567 C498.502,202.617 501.258,200.225 504.659,200.225 z" fill-opacity="0" stroke="#454545" stroke-width="8" class="mEEoDPDg_18"></path>
    <path d="M204.376,199.949 L342.061,199.949 C345.462,199.949 348.219,202.341 348.219,205.292 L348.219,344.607 C348.219,347.557 345.462,349.949 342.061,349.949 L204.376,349.949 C200.975,349.949 198.219,347.557 198.219,344.607 L198.219,205.292 C198.219,202.341 200.975,199.949 204.376,199.949 z" fill-opacity="0" stroke="#454545" stroke-width="8" class="mEEoDPDg_19"></path>
    <path d="M804.659,200.225 L942.345,200.225 C945.745,200.225 948.502,202.617 948.502,205.567 L948.502,344.882 C948.502,347.833 945.745,350.225 942.345,350.225 L804.659,350.225 C801.258,350.225 798.502,347.833 798.502,344.882 L798.502,205.567 C798.502,202.617 801.258,200.225 804.659,200.225 z" fill-opacity="0" stroke="#454545" stroke-width="8" class="mEEoDPDg_20"></path>
    <path d="M354.659,350.5 L492.345,350.5 C495.745,350.5 498.502,352.892 498.502,355.843 L498.502,495.157 C498.502,498.108 495.745,500.5 492.345,500.5 L354.659,500.5 C351.258,500.5 348.502,498.108 348.502,495.157 L348.502,355.843 C348.502,352.892 351.258,350.5 354.659,350.5 z" fill-opacity="0" stroke="#454545" stroke-width="8" class="mEEoDPDg_21"></path>
    <path d="M504.659,350.5 L642.345,350.5 C645.745,350.5 648.502,352.892 648.502,355.843 L648.502,495.157 C648.502,498.108 645.745,500.5 642.345,500.5 L504.659,500.5 C501.258,500.5 498.502,498.108 498.502,495.157 L498.502,355.843 C498.502,352.892 501.258,350.5 504.659,350.5 z" fill-opacity="0" stroke="#454545" stroke-width="8" class="mEEoDPDg_22"></path>
    <path d="M654.659,350.225 L792.345,350.225 C795.745,350.225 798.502,352.617 798.502,355.567 L798.502,494.882 C798.502,497.833 795.745,500.225 792.345,500.225 L654.659,500.225 C651.258,500.225 648.502,497.833 648.502,494.882 L648.502,355.567 C648.502,352.617 651.258,350.225 654.659,350.225 z" fill-opacity="0" stroke="#454545" stroke-width="8" class="mEEoDPDg_23"></path>
    <path d="M804.659,350.5 L942.345,350.5 C945.745,350.5 948.502,352.892 948.502,355.843 L948.502,495.157 C948.502,498.108 945.745,500.5 942.345,500.5 L804.659,500.5 C801.258,500.5 798.502,498.108 798.502,495.157 L798.502,355.843 C798.502,352.892 801.258,350.5 804.659,350.5 z" fill-opacity="0" stroke="#454545" stroke-width="8" class="mEEoDPDg_24"></path>
    <path d="M504.659,500.775 L642.345,500.775 C645.745,500.775 648.502,503.167 648.502,506.118 L648.502,645.433 C648.502,648.383 645.745,650.775 642.345,650.775 L504.659,650.775 C501.258,650.775 498.502,648.383 498.502,645.433 L498.502,506.118 C498.502,503.167 501.258,500.775 504.659,500.775 z" fill-opacity="0" stroke="#454545" stroke-width="8" class="mEEoDPDg_25"></path>
    <path d="M204.376,500.5 L342.061,500.5 C345.462,500.5 348.219,502.892 348.219,505.843 L348.219,645.157 C348.219,648.108 345.462,650.5 342.061,650.5 L204.376,650.5 C200.975,650.5 198.219,648.108 198.219,645.157 L198.219,505.843 C198.219,502.892 200.975,500.5 204.376,500.5 z" fill-opacity="0" stroke="#454545" stroke-width="8" class="mEEoDPDg_26"></path>
    <path d="M804.659,500.775 L942.345,500.775 C945.745,500.775 948.502,503.167 948.502,506.118 L948.502,645.433 C948.502,648.383 945.745,650.775 942.345,650.775 L804.659,650.775 C801.258,650.775 798.502,648.383 798.502,645.433 L798.502,506.118 C798.502,503.167 801.258,500.775 804.659,500.775 z" fill-opacity="0" stroke="#454545" stroke-width="8" class="mEEoDPDg_27"></path>
    <path d="M354.659,651.051 L492.345,651.051 C495.745,651.051 498.502,653.443 498.502,656.393 L498.502,795.708 C498.502,798.659 495.745,801.051 492.345,801.051 L354.659,801.051 C351.258,801.051 348.502,798.659 348.502,795.708 L348.502,656.393 C348.502,653.443 351.258,651.051 354.659,651.051 z" fill-opacity="0" stroke="#454545" stroke-width="8" class="mEEoDPDg_28"></path>
    <path d="M654.659,650.775 L792.345,650.775 C795.745,650.775 798.502,653.167 798.502,656.118 L798.502,795.433 C798.502,798.383 795.745,800.775 792.345,800.775 L654.659,800.775 C651.258,800.775 648.502,798.383 648.502,795.433 L648.502,656.118 C648.502,653.167 651.258,650.775 654.659,650.775 z" fill-opacity="0" stroke="#454545" stroke-width="8" class="mEEoDPDg_29"></path>
    <path d="M804.659,651.051 L942.345,651.051 C945.745,651.051 948.502,653.443 948.502,656.393 L948.502,795.708 C948.502,798.659 945.745,801.051 942.345,801.051 L804.659,801.051 C801.258,801.051 798.502,798.659 798.502,795.708 L798.502,656.393 C798.502,653.443 801.258,651.051 804.659,651.051 z" fill-opacity="0" stroke="#454545" stroke-width="8" class="mEEoDPDg_30"></path>
    <g>
      <path d="M354.659,801.326 L492.345,801.326 C495.745,801.326 498.502,803.718 498.502,806.669 L498.502,945.984 C498.502,948.934 495.745,951.326 492.345,951.326 L354.659,951.326 C351.258,951.326 348.502,948.934 348.502,945.984 L348.502,806.669 C348.502,803.718 351.258,801.326 354.659,801.326 z" fill="#BABABA" fill-opacity="0.695" class="mEEoDPDg_31"></path>
      <path d="M354.659,801.326 L492.345,801.326 C495.745,801.326 498.502,803.718 498.502,806.669 L498.502,945.984 C498.502,948.934 495.745,951.326 492.345,951.326 L354.659,951.326 C351.258,951.326 348.502,948.934 348.502,945.984 L348.502,806.669 C348.502,803.718 351.258,801.326 354.659,801.326 z" fill-opacity="0" stroke="#454545" stroke-width="8" class="mEEoDPDg_32"></path>
    </g>
    <path d="M504.659,801.326 L642.345,801.326 C645.745,801.326 648.502,803.718 648.502,806.669 L648.502,945.984 C648.502,948.934 645.745,951.326 642.345,951.326 L504.659,951.326 C501.258,951.326 498.502,948.934 498.502,945.984 L498.502,806.669 C498.502,803.718 501.258,801.326 504.659,801.326 z" fill-opacity="0" stroke="#454545" stroke-width="8" class="mEEoDPDg_33"></path>
    <path d="M654.659,801.051 L792.345,801.051 C795.745,801.051 798.502,803.443 798.502,806.393 L798.502,945.708 C798.502,948.659 795.745,951.051 792.345,951.051 L654.659,951.051 C651.258,951.051 648.502,948.659 648.502,945.708 L648.502,806.393 C648.502,803.443 651.258,801.051 654.659,801.051 z" fill-opacity="0" stroke="#454545" stroke-width="8" class="mEEoDPDg_34"></path>
    <path d="M204.376,801.051 L342.061,801.051 C345.462,801.051 348.219,803.443 348.219,806.393 L348.219,945.708 C348.219,948.659 345.462,951.051 342.061,951.051 L204.376,951.051 C200.975,951.051 198.219,948.659 198.219,945.708 L198.219,806.393 C198.219,803.443 200.975,801.051 204.376,801.051 z" fill-opacity="0" stroke="#454545" stroke-width="8" class="mEEoDPDg_35"></path>
    <path d="M804.659,801.326 L942.345,801.326 C945.745,801.326 948.502,803.718 948.502,806.669 L948.502,945.984 C948.502,948.934 945.745,951.326 942.345,951.326 L804.659,951.326 C801.258,951.326 798.502,948.934 798.502,945.984 L798.502,806.669 C798.502,803.718 801.258,801.326 804.659,801.326 z" fill-opacity="0" stroke="#454545" stroke-width="8" class="mEEoDPDg_36"></path>
    <path d="M265.295,467.275 L265.295,431.885 L301.623,431.885 L301.623,420.811 L265.295,420.811 L265.295,394.033 L304.963,394.033 L304.963,382.725 L252.17,382.725 L252.17,467.275 z" fill="#454545" class="mEEoDPDg_37"></path>
    <path d="M462.785,431.844 L462.785,423.23 L427.981,423.23 L427.981,433.836 L449.836,433.836 L449.836,435.301 C449.66,448.133 440.168,456.922 426.457,456.922 C410.344,456.922 400.325,444.441 400.325,424.227 C400.325,404.363 410.051,392.527 426.223,392.527 C437.239,392.527 445.5,398.563 448.664,409.051 L462.141,409.051 C459.211,392.176 444.973,381.043 426.164,381.043 C402.082,381.043 386.907,397.684 386.907,424.344 C386.907,451.473 402.141,468.406 426.34,468.406 C449.25,468.406 462.785,454.754 462.785,431.844 z" fill="#454545" class="mEEoDPDg_38"></path>
    <path d="M607.836,467 L607.836,382.449 L594.711,382.449 L594.711,418.191 L551.293,418.191 L551.293,382.449 L538.168,382.449 L538.168,467 L551.293,467 L551.293,429.559 L594.711,429.559 L594.711,467 z" fill="#454545" class="mEEoDPDg_39"></path>
    <path d="M729.564,467.275 L729.564,382.725 L716.439,382.725 L716.439,467.275 z" fill="#454545" class="mEEoDPDg_40"></path>
    <path d="M693.645,232.449 L693.645,317 L723.469,317 C748.664,317 763.489,301.297 763.489,274.578 C763.489,247.918 748.606,232.449 723.469,232.449 z M706.77,243.758 L722.239,243.758 C740.11,243.758 750.071,254.773 750.071,274.695 C750.071,294.676 740.168,305.633 722.239,305.633 L706.77,305.633 z" fill="#454545" class="mEEoDPDg_41"></path>
    <path d="M857.392,467 L857.392,438.816 L866.064,428.914 L895.361,467 L911.65,467 L875.322,419.891 L908.838,382.449 L893.252,382.449 L857.92,422.703 L857.392,422.703 L857.392,382.449 L844.267,382.449 L844.267,467 z" fill="#454545" class="mEEoDPDg_42"></path>
    <path d="M304.817,606.184 L265.442,606.184 L265.442,533 L252.317,533 L252.317,617.551 L304.817,617.551 z" fill="#454545" class="mEEoDPDg_43"></path>
    <path d="M465.492,617.551 L465.492,533 L450.258,533 L422.953,599.738 L422.484,599.738 L395.121,533 L379.945,533 L379.945,617.551 L391.898,617.551 L391.898,555.324 L392.308,555.324 L417.855,616.906 L427.582,616.906 L453.07,555.324 L453.48,555.324 L453.48,617.551 z" fill="#454545" class="mEEoDPDg_44"></path>
    <path d="M551.293,617.551 L551.293,555.266 L551.82,555.266 L595.648,617.551 L607.484,617.551 L607.484,533 L594.711,533 L594.711,595.344 L594.242,595.344 L550.414,533 L538.519,533 L538.519,617.551 z" fill="#454545" class="mEEoDPDg_45"></path>
    <path d="M723.002,531.594 C698.627,531.594 683.392,548.41 683.392,575.305 C683.392,602.199 698.627,618.957 723.002,618.957 C747.318,618.957 762.611,602.199 762.611,575.305 C762.611,548.41 747.318,531.594 723.002,531.594 z M723.002,543.137 C739.056,543.137 749.135,555.559 749.135,575.305 C749.135,594.992 739.056,607.414 723.002,607.414 C706.947,607.414 696.81,594.992 696.81,575.305 C696.81,555.559 706.947,543.137 723.002,543.137 z" fill="#454545" class="mEEoDPDg_46"></path>
    <path d="M843.236,533 L843.236,617.551 L856.361,617.551 L856.361,588.664 L874.525,588.664 C891.107,588.664 902.767,577.297 902.767,560.773 C902.767,544.309 891.342,533 874.935,533 z M856.361,544.074 L871.478,544.074 C882.845,544.074 889.349,550.168 889.349,560.832 C889.349,571.496 882.845,577.648 871.42,577.648 L856.361,577.648 z" fill="#454545" class="mEEoDPDg_47"></path>
    <path d="M404.086,694.291 L422.133,694.291 C432.269,694.291 438.422,700.033 438.422,709.467 C438.422,719.135 432.621,724.701 422.484,724.701 L404.086,724.701 z M404.086,735.307 L422.133,735.307 L422.133,735.307 L439.359,767.826 L454.476,767.826 L435.551,733.256 C445.863,729.799 451.957,720.541 451.957,709.115 C451.957,693.354 441.117,683.275 423.715,683.275 L390.961,683.275 L390.961,767.826 L404.086,767.826 z" fill="#454545" class="mEEoDPDg_48"></path>
    <path d="M273.002,765.178 C278.451,765.178 283.49,764.357 288.002,762.658 L295.209,772.736 L308.92,772.736 L297.904,757.092 C307.338,749.768 312.611,737.346 312.611,721.525 C312.611,694.69 297.318,677.815 273.002,677.815 C248.627,677.815 233.392,694.69 233.392,721.525 C233.392,748.479 248.627,765.178 273.002,765.178 z M273.002,753.693 C256.947,753.693 246.81,741.213 246.81,721.525 C246.81,701.779 256.947,689.299 273.002,689.299 C289.056,689.299 299.135,701.779 299.135,721.525 C299.135,732.424 295.853,741.037 290.111,746.369 L284.135,738.283 L270.834,738.283 L280.912,752.522 C278.451,753.283 275.814,753.693 273.002,753.693 z" fill="#454545" class="mEEoDPDg_49"></path>
    <path d="M540.57,744.272 C541.39,759.565 554.047,769.232 572.797,769.232 C592.836,769.232 605.433,759.33 605.433,743.51 C605.433,731.147 598.226,724.174 580.883,720.072 L571.566,717.787 C560.668,715.092 556.215,711.576 556.215,705.6 C556.215,698.1 563.187,692.943 573.383,692.943 C583.578,692.943 590.551,698.041 591.312,706.479 L604.086,706.479 C603.676,691.889 591.429,681.869 573.558,681.869 C555.511,681.869 542.797,691.889 542.797,706.479 C542.797,718.256 550.004,725.522 565.531,729.272 L576.488,731.908 C587.445,734.604 592.074,738.529 592.074,745.092 C592.074,752.65 584.398,758.158 573.734,758.158 C562.601,758.158 554.457,752.65 553.519,744.272 z" fill="#454545" class="mEEoDPDg_50"></path>
    <path d="M729.594,767.551 L729.594,694.309 L755.433,694.309 L755.433,683 L690.57,683 L690.57,694.309 L716.469,694.309 L716.469,767.551 z" fill="#454545" class="mEEoDPDg_51"></path>
    <path d="M851.908,682.297 L838.783,682.297 L838.783,737.141 C838.783,755.363 851.791,768.254 873.002,768.254 C894.213,768.254 907.22,755.363 907.22,737.141 L907.22,682.297 L894.154,682.297 L894.154,736.027 C894.154,748.098 886.478,756.594 873.002,756.594 C859.525,756.594 851.908,748.098 851.908,736.027 z" fill="#454545" class="mEEoDPDg_52"></path>
    <path d="M279.896,918.102 L310.072,833.551 L296.068,833.551 L272.982,903.336 L272.631,903.336 L249.603,833.551 L235.365,833.551 L265.541,918.102 z" fill="#454545" class="mEEoDPDg_53"></path>
    <path d="M422.396,854.352 L422.982,854.352 L441.263,918.102 L453.627,918.102 L476.478,833.551 L462.826,833.551 L447.181,899.762 L446.713,899.762 L428.783,833.551 L416.595,833.551 L398.724,899.762 L398.256,899.762 L382.611,833.551 L368.959,833.551 L391.752,918.102 L404.174,918.102 z" fill="#454545" class="mEEoDPDg_54"></path>
    <path d="M536.41,918.102 L550.941,918.102 L572.269,885.875 L572.679,885.875 L593.715,918.102 L609.066,918.102 L580.941,876.148 L580.941,875.797 L609.594,833.551 L594.769,833.551 L573.676,866.246 L573.207,866.246 L552.347,833.551 L536.703,833.551 L564.476,875.328 L564.476,875.738 z" fill="#454545" class="mEEoDPDg_55"></path>
    <path d="M729.535,918.102 L729.535,883.473 L759.359,833.551 L744.828,833.551 L723.265,870.875 L722.855,870.875 L701.293,833.551 L686.644,833.551 L716.41,883.473 L716.41,918.102 z" fill="#454545" class="mEEoDPDg_56"></path>
    <path d="M841.244,918.102 L904.76,918.102 L904.76,906.734 L857.533,906.734 L857.533,906.324 L903.646,842.516 L903.646,833.551 L842.65,833.551 L842.65,844.859 L887.533,844.859 L887.533,845.328 L841.244,909.137 z" fill="#454545" class="mEEoDPDg_57"></path>
    <path d="M354.376,199.949 L492.061,199.949 C495.462,199.949 498.219,202.341 498.219,205.292 L498.219,344.607 C498.219,347.557 495.462,349.949 492.061,349.949 L354.376,349.949 C350.975,349.949 348.219,347.557 348.219,344.607 L348.219,205.292 C348.219,202.341 350.975,199.949 354.376,199.949 z" fill-opacity="0" stroke="#454545" stroke-width="8" class="mEEoDPDg_58"></path>
    <path d="M654.659,199.949 L792.345,199.949 C795.745,199.949 798.502,202.341 798.502,205.292 L798.502,344.607 C798.502,347.557 795.745,349.949 792.345,349.949 L654.659,349.949 C651.258,349.949 648.502,347.557 648.502,344.607 L648.502,205.292 C648.502,202.341 651.258,199.949 654.659,199.949 z" fill-opacity="0" stroke="#454545" stroke-width="8" class="mEEoDPDg_59"></path>
    <path d="M204.659,350.225 L342.345,350.225 C345.745,350.225 348.502,352.617 348.502,355.567 L348.502,494.882 C348.502,497.833 345.745,500.225 342.345,500.225 L204.659,500.225 C201.258,500.225 198.502,497.833 198.502,494.882 L198.502,355.567 C198.502,352.617 201.258,350.225 204.659,350.225 z" fill-opacity="0" stroke="#454545" stroke-width="8" class="mEEoDPDg_60"></path>
    <path d="M204.659,650.775 L342.345,650.775 C345.745,650.775 348.502,653.167 348.502,656.118 L348.502,795.433 C348.502,798.383 345.745,800.775 342.345,800.775 L204.659,800.775 C201.258,800.775 198.502,798.383 198.502,795.433 L198.502,656.118 C198.502,653.167 201.258,650.775 204.659,650.775 z" fill-opacity="0" stroke="#454545" stroke-width="8" class="mEEoDPDg_61"></path>
    <path d="M277.494,166.725 L290.326,166.725 L290.326,82.174 L277.377,82.174 L255.111,97.994 L255.111,110.885 L277.201,95.182 L277.494,95.182 z" fill="#BABABA" class="mEEoDPDg_62"></path>
    <path d="M127.494,317.413 L140.326,317.413 L140.326,232.862 L127.377,232.862 L105.111,248.683 L105.111,261.573 L127.201,245.87 L127.494,245.87 z" fill="#BABABA" class="mEEoDPDg_63"></path>
    <path d="M93.451,408.025 L93.451,408.143 L105.873,408.143 L105.873,407.967 C105.873,399.178 112.845,392.498 122.103,392.498 C130.892,392.498 137.689,398.475 137.689,405.975 C137.689,412.596 134.994,417.049 124.681,427.771 L94.154,458.885 L94.154,467.791 L151.986,467.791 L151.986,456.717 L111.849,456.717 L111.849,456.424 L133.002,435.154 C145.365,422.498 150.638,415.174 150.638,405.33 C150.638,391.912 138.627,381.658 122.513,381.658 C105.697,381.658 93.451,392.791 93.451,408.025 z" fill="#BABABA" class="mEEoDPDg_64"></path>
    <path d="M111.674,579.014 L122.22,579.014 C133.353,579.014 140.267,584.639 140.267,593.779 C140.267,602.041 132.885,607.9 122.572,607.9 C111.908,607.9 105.228,602.334 104.408,594.248 L91.81,594.248 C92.631,608.838 104.349,618.857 122.572,618.857 C140.209,618.857 153.627,608.721 153.627,593.955 C153.627,582.119 145.424,574.326 132.709,573.447 L132.709,573.213 C143.197,571.338 150.111,563.779 150.111,553.232 C150.111,540.225 138.451,531.143 122.455,531.143 C105.697,531.143 94.506,540.693 93.51,555.518 L105.873,555.518 C106.635,547.197 112.728,541.924 121.869,541.924 C131.888,541.924 137.279,547.139 137.279,554.99 C137.279,562.959 131.01,568.701 121.869,568.701 L111.674,568.701 z" fill="#BABABA" class="mEEoDPDg_65"></path>
    <path d="M131.771,767.551 L144.369,767.551 L144.369,750.852 L155.97,750.852 L155.97,739.836 L144.369,739.836 L144.369,683 L125.385,683 C106.342,710.539 96.732,725.715 89.467,739.367 L89.467,750.852 L131.771,750.852 z M101.713,739.719 C108.451,727.473 117.006,714.289 131.654,693.137 L131.888,693.137 L131.888,740.012 L101.713,740.012 z" fill="#BABABA" class="mEEoDPDg_66"></path>
    <path d="M393.734,107.75 L393.734,107.867 L406.156,107.867 L406.156,107.691 C406.156,98.902 413.129,92.223 422.386,92.223 C431.176,92.223 437.972,98.199 437.972,105.699 C437.972,112.32 435.277,116.773 424.965,127.496 L394.437,158.609 L394.437,167.516 L452.269,167.516 L452.269,156.441 L412.133,156.441 L412.133,156.148 L433.285,134.879 C445.648,122.223 450.922,114.898 450.922,105.055 C450.922,91.637 438.91,81.383 422.797,81.383 C405.98,81.383 393.734,92.516 393.734,107.75 z" fill="#BABABA" class="mEEoDPDg_67"></path>
    <path d="M122.22,918.893 C140.443,918.893 153.217,906.881 153.217,889.537 C153.217,873.131 141.556,861.236 125.326,861.236 C117.064,861.236 110.15,864.459 106.459,869.791 L106.166,869.791 L108.51,843.834 L148.295,843.834 L148.295,832.76 L97.963,832.76 L93.51,880.572 L105.521,880.572 C108.802,875.006 115.131,871.666 122.455,871.666 C133.002,871.666 140.385,879.283 140.385,889.889 C140.385,900.494 133.002,907.936 122.338,907.936 C112.904,907.936 105.697,902.193 104.76,893.815 L92.22,893.815 C92.982,908.58 105.345,918.893 122.22,918.893 z" fill="#BABABA" class="mEEoDPDg_68"></path>
    <path d="M561.957,131.187 L572.504,131.187 C583.636,131.187 590.551,136.812 590.551,145.953 C590.551,154.215 583.168,160.074 572.855,160.074 C562.191,160.074 555.511,154.508 554.691,146.422 L542.094,146.422 C542.914,161.012 554.633,171.031 572.855,171.031 C590.492,171.031 603.91,160.894 603.91,146.129 C603.91,134.293 595.707,126.5 582.992,125.621 L582.992,125.387 C593.48,123.512 600.394,115.953 600.394,105.406 C600.394,92.398 588.734,83.316 572.738,83.316 C555.98,83.316 544.789,92.867 543.793,107.691 L556.156,107.691 C556.918,99.371 563.011,94.098 572.152,94.098 C582.172,94.098 587.562,99.312 587.562,107.164 C587.562,115.133 581.293,120.875 572.152,120.875 L561.957,120.875 z" fill="#BABABA" class="mEEoDPDg_69"></path>
    <path d="M732.054,166.725 L744.652,166.725 L744.652,150.025 L756.254,150.025 L756.254,139.01 L744.652,139.01 L744.652,82.174 L725.668,82.174 C706.625,109.713 697.015,124.889 689.75,138.541 L689.75,150.025 L732.054,150.025 z M701.996,138.893 C708.734,126.646 717.289,113.463 731.937,92.31 L732.172,92.31 L732.172,139.185 L701.996,139.185 z" fill="#BABABA" class="mEEoDPDg_70"></path>
    <path d="M872.504,167.24 C890.726,167.24 903.5,155.228 903.5,137.885 C903.5,121.478 891.84,109.584 875.609,109.584 C867.347,109.584 860.433,112.807 856.742,118.139 L856.449,118.139 L858.793,92.182 L898.578,92.182 L898.578,81.107 L848.246,81.107 L843.793,128.92 L855.804,128.92 C859.086,123.353 865.414,120.014 872.738,120.014 C883.285,120.014 890.668,127.631 890.668,138.236 C890.668,148.842 883.285,156.283 872.621,156.283 C863.187,156.283 855.98,150.541 855.043,142.162 L842.504,142.162 C843.265,156.928 855.629,167.24 872.504,167.24 z" fill="#BABABA" class="mEEoDPDg_71"></path>
    <path d="M1008.667,350.5 L1146.613,350.5 C1150.02,350.5 1152.781,352.892 1152.781,355.843 L1152.781,495.157 C1152.781,498.108 1150.02,500.5 1146.613,500.5 L1008.667,500.5 C1005.26,500.5 1002.498,498.108 1002.498,495.157 L1002.498,355.843 C1002.498,352.892 1005.26,350.5 1008.667,350.5 z" fill-opacity="0" stroke="#454545" stroke-width="8" class="mEEoDPDg_72"></path>
    <path d="M1076.817,403.25 L1077.404,403.25 L1095.72,467 L1108.106,467 L1131.001,382.449 L1117.323,382.449 L1101.649,448.66 L1101.179,448.66 L1083.216,382.449 L1071.005,382.449 L1053.1,448.66 L1052.631,448.66 L1036.957,382.449 L1023.279,382.449 L1046.115,467 L1058.56,467 z" fill="#454545" class="mEEoDPDg_73"></path>
  </g>
<style data-made-with="vivus-instant">.mEEoDPDg_0{stroke-dasharray:460 462;stroke-dashoffset:461;animation:mEEoDPDg_draw 1666ms ease-in-out 0ms forwards;}.mEEoDPDg_1{stroke-dasharray:399 401;stroke-dashoffset:400;animation:mEEoDPDg_draw 1666ms ease-in-out 11ms forwards;}.mEEoDPDg_2{stroke-dasharray:591 593;stroke-dashoffset:592;animation:mEEoDPDg_draw 1666ms ease-in-out 22ms forwards;}.mEEoDPDg_3{stroke-dasharray:591 593;stroke-dashoffset:592;animation:mEEoDPDg_draw 1666ms ease-in-out 34ms forwards;}.mEEoDPDg_4{stroke-dasharray:591 593;stroke-dashoffset:592;animation:mEEoDPDg_draw 1666ms ease-in-out 45ms forwards;}.mEEoDPDg_5{stroke-dasharray:591 593;stroke-dashoffset:592;animation:mEEoDPDg_draw 1666ms ease-in-out 57ms forwards;}.mEEoDPDg_6{stroke-dasharray:591 593;stroke-dashoffset:592;animation:mEEoDPDg_draw 1666ms ease-in-out 68ms forwards;}.mEEoDPDg_7{stroke-dasharray:591 593;stroke-dashoffset:592;animation:mEEoDPDg_draw 1666ms ease-in-out 79ms forwards;}.mEEoDPDg_8{stroke-dasharray:591 593;stroke-dashoffset:592;animation:mEEoDPDg_draw 1666ms ease-in-out 91ms forwards;}.mEEoDPDg_9{stroke-dasharray:591 593;stroke-dashoffset:592;animation:mEEoDPDg_draw 1666ms ease-in-out 102ms forwards;}.mEEoDPDg_10{stroke-dasharray:591 593;stroke-dashoffset:592;animation:mEEoDPDg_draw 1666ms ease-in-out 114ms forwards;}.mEEoDPDg_11{stroke-dasharray:591 593;stroke-dashoffset:592;animation:mEEoDPDg_draw 1666ms ease-in-out 125ms forwards;}.mEEoDPDg_12{stroke-dasharray:591 593;stroke-dashoffset:592;animation:mEEoDPDg_draw 1666ms ease-in-out 136ms forwards;}.mEEoDPDg_13{stroke-dasharray:591 593;stroke-dashoffset:592;animation:mEEoDPDg_draw 1666ms ease-in-out 148ms forwards;}.mEEoDPDg_14{stroke-dasharray:407 409;stroke-dashoffset:408;animation:mEEoDPDg_draw 1666ms ease-in-out 159ms forwards;}.mEEoDPDg_15{stroke-dasharray:509 511;stroke-dashoffset:510;animation:mEEoDPDg_draw 1666ms ease-in-out 171ms forwards;}.mEEoDPDg_16{stroke-dasharray:413 415;stroke-dashoffset:414;animation:mEEoDPDg_draw 1666ms ease-in-out 182ms forwards;}.mEEoDPDg_17{stroke-dasharray:435 437;stroke-dashoffset:436;animation:mEEoDPDg_draw 1666ms ease-in-out 194ms forwards;}.mEEoDPDg_18{stroke-dasharray:591 593;stroke-dashoffset:592;animation:mEEoDPDg_draw 1666ms ease-in-out 205ms forwards;}.mEEoDPDg_19{stroke-dasharray:591 593;stroke-dashoffset:592;animation:mEEoDPDg_draw 1666ms ease-in-out 216ms forwards;}.mEEoDPDg_20{stroke-dasharray:591 593;stroke-dashoffset:592;animation:mEEoDPDg_draw 1666ms ease-in-out 228ms forwards;}.mEEoDPDg_21{stroke-dasharray:591 593;stroke-dashoffset:592;animation:mEEoDPDg_draw 1666ms ease-in-out 239ms forwards;}.mEEoDPDg_22{stroke-dasharray:591 593;stroke-dashoffset:592;animation:mEEoDPDg_draw 1666ms ease-in-out 251ms forwards;}.mEEoDPDg_23{stroke-dasharray:591 593;stroke-dashoffset:592;animation:mEEoDPDg_draw 1666ms ease-in-out 262ms forwards;}.mEEoDPDg_24{stroke-dasharray:591 593;stroke-dashoffset:592;animation:mEEoDPDg_draw 1666ms ease-in-out 273ms forwards;}.mEEoDPDg_25{stroke-dasharray:591 593;stroke-dashoffset:592;animation:mEEoDPDg_draw 1666ms ease-in-out 285ms forwards;}.mEEoDPDg_26{stroke-dasharray:591 593;stroke-dashoffset:592;animation:mEEoDPDg_draw 1666ms ease-in-out 296ms forwards;}.mEEoDPDg_27{stroke-dasharray:591 593;stroke-dashoffset:592;animation:mEEoDPDg_draw 1666ms ease-in-out 308ms forwards;}.mEEoDPDg_28{stroke-dasharray:591 593;stroke-dashoffset:592;animation:mEEoDPDg_draw 1666ms ease-in-out 319ms forwards;}.mEEoDPDg_29{stroke-dasharray:591 593;stroke-dashoffset:592;animation:mEEoDPDg_draw 1666ms ease-in-out 331ms forwards;}.mEEoDPDg_30{stroke-dasharray:591 593;stroke-dashoffset:592;animation:mEEoDPDg_draw 1666ms ease-in-out 342ms forwards;}.mEEoDPDg_31{stroke-dasharray:591 593;stroke-dashoffset:592;animation:mEEoDPDg_draw 1666ms ease-in-out 353ms forwards;}.mEEoDPDg_32{stroke-dasharray:591 593;stroke-dashoffset:592;animation:mEEoDPDg_draw 1666ms ease-in-out 365ms forwards;}.mEEoDPDg_33{stroke-dasharray:591 593;stroke-dashoffset:592;animation:mEEoDPDg_draw 1666ms ease-in-out 376ms forwards;}.mEEoDPDg_34{stroke-dasharray:591 593;stroke-dashoffset:592;animation:mEEoDPDg_draw 1666ms ease-in-out 388ms forwards;}.mEEoDPDg_35{stroke-dasharray:591 593;stroke-dashoffset:592;animation:mEEoDPDg_draw 1666ms ease-in-out 399ms forwards;}.mEEoDPDg_36{stroke-dasharray:591 593;stroke-dashoffset:592;animation:mEEoDPDg_draw 1666ms ease-in-out 410ms forwards;}.mEEoDPDg_37{stroke-dasharray:348 350;stroke-dashoffset:349;animation:mEEoDPDg_draw 1666ms ease-in-out 422ms forwards;}.mEEoDPDg_38{stroke-dasharray:492 494;stroke-dashoffset:493;animation:mEEoDPDg_draw 1666ms ease-in-out 433ms forwards;}.mEEoDPDg_39{stroke-dasharray:455 457;stroke-dashoffset:456;animation:mEEoDPDg_draw 1666ms ease-in-out 445ms forwards;}.mEEoDPDg_40{stroke-dasharray:196 198;stroke-dashoffset:197;animation:mEEoDPDg_draw 1666ms ease-in-out 456ms forwards;}.mEEoDPDg_41{stroke-dasharray:465 467;stroke-dashoffset:466;animation:mEEoDPDg_draw 1666ms ease-in-out 468ms forwards;}.mEEoDPDg_42{stroke-dasharray:437 439;stroke-dashoffset:438;animation:mEEoDPDg_draw 1666ms ease-in-out 479ms forwards;}.mEEoDPDg_43{stroke-dasharray:275 277;stroke-dashoffset:276;animation:mEEoDPDg_draw 1666ms ease-in-out 490ms forwards;}.mEEoDPDg_44{stroke-dasharray:637 639;stroke-dashoffset:638;animation:mEEoDPDg_draw 1666ms ease-in-out 502ms forwards;}.mEEoDPDg_45{stroke-dasharray:497 499;stroke-dashoffset:498;animation:mEEoDPDg_draw 1666ms ease-in-out 513ms forwards;}.mEEoDPDg_46{stroke-dasharray:454 456;stroke-dashoffset:455;animation:mEEoDPDg_draw 1666ms ease-in-out 525ms forwards;}.mEEoDPDg_47{stroke-dasharray:385 387;stroke-dashoffset:386;animation:mEEoDPDg_draw 1666ms ease-in-out 536ms forwards;}.mEEoDPDg_48{stroke-dasharray:464 466;stroke-dashoffset:465;animation:mEEoDPDg_draw 1666ms ease-in-out 547ms forwards;}.mEEoDPDg_49{stroke-dasharray:517 519;stroke-dashoffset:518;animation:mEEoDPDg_draw 1666ms ease-in-out 559ms forwards;}.mEEoDPDg_50{stroke-dasharray:444 446;stroke-dashoffset:445;animation:mEEoDPDg_draw 1666ms ease-in-out 570ms forwards;}.mEEoDPDg_51{stroke-dasharray:299 301;stroke-dashoffset:300;animation:mEEoDPDg_draw 1666ms ease-in-out 582ms forwards;}.mEEoDPDg_52{stroke-dasharray:415 417;stroke-dashoffset:416;animation:mEEoDPDg_draw 1666ms ease-in-out 593ms forwards;}.mEEoDPDg_53{stroke-dasharray:370 372;stroke-dashoffset:371;animation:mEEoDPDg_draw 1666ms ease-in-out 605ms forwards;}.mEEoDPDg_54{stroke-dasharray:647 649;stroke-dashoffset:648;animation:mEEoDPDg_draw 1666ms ease-in-out 616ms forwards;}.mEEoDPDg_55{stroke-dasharray:420 422;stroke-dashoffset:421;animation:mEEoDPDg_draw 1666ms ease-in-out 627ms forwards;}.mEEoDPDg_56{stroke-dasharray:315 317;stroke-dashoffset:316;animation:mEEoDPDg_draw 1666ms ease-in-out 639ms forwards;}.mEEoDPDg_57{stroke-dasharray:416 418;stroke-dashoffset:417;animation:mEEoDPDg_draw 1666ms ease-in-out 650ms forwards;}.mEEoDPDg_58{stroke-dasharray:591 593;stroke-dashoffset:592;animation:mEEoDPDg_draw 1666ms ease-in-out 662ms forwards;}.mEEoDPDg_59{stroke-dasharray:591 593;stroke-dashoffset:592;animation:mEEoDPDg_draw 1666ms ease-in-out 673ms forwards;}.mEEoDPDg_60{stroke-dasharray:591 593;stroke-dashoffset:592;animation:mEEoDPDg_draw 1666ms ease-in-out 684ms forwards;}.mEEoDPDg_61{stroke-dasharray:591 593;stroke-dashoffset:592;animation:mEEoDPDg_draw 1666ms ease-in-out 696ms forwards;}.mEEoDPDg_62{stroke-dasharray:250 252;stroke-dashoffset:251;animation:mEEoDPDg_draw 1666ms ease-in-out 707ms forwards;}.mEEoDPDg_63{stroke-dasharray:250 252;stroke-dashoffset:251;animation:mEEoDPDg_draw 1666ms ease-in-out 719ms forwards;}.mEEoDPDg_64{stroke-dasharray:399 401;stroke-dashoffset:400;animation:mEEoDPDg_draw 1666ms ease-in-out 730ms forwards;}.mEEoDPDg_65{stroke-dasharray:434 436;stroke-dashoffset:435;animation:mEEoDPDg_draw 1666ms ease-in-out 742ms forwards;}.mEEoDPDg_66{stroke-dasharray:410 412;stroke-dashoffset:411;animation:mEEoDPDg_draw 1666ms ease-in-out 753ms forwards;}.mEEoDPDg_67{stroke-dasharray:399 401;stroke-dashoffset:400;animation:mEEoDPDg_draw 1666ms ease-in-out 764ms forwards;}.mEEoDPDg_68{stroke-dasharray:460 462;stroke-dashoffset:461;animation:mEEoDPDg_draw 1666ms ease-in-out 776ms forwards;}.mEEoDPDg_69{stroke-dasharray:434 436;stroke-dashoffset:435;animation:mEEoDPDg_draw 1666ms ease-in-out 787ms forwards;}.mEEoDPDg_70{stroke-dasharray:410 412;stroke-dashoffset:411;animation:mEEoDPDg_draw 1666ms ease-in-out 799ms forwards;}.mEEoDPDg_71{stroke-dasharray:460 462;stroke-dashoffset:461;animation:mEEoDPDg_draw 1666ms ease-in-out 810ms forwards;}.mEEoDPDg_72{stroke-dasharray:591 593;stroke-dashoffset:592;animation:mEEoDPDg_draw 1666ms ease-in-out 821ms forwards;}.mEEoDPDg_73{stroke-dasharray:648 650;stroke-dashoffset:649;animation:mEEoDPDg_draw 1666ms ease-in-out 833ms forwards;}@keyframes mEEoDPDg_draw{100%{stroke-dashoffset:0;}}@keyframes mEEoDPDg_fade{0%{stroke-opacity:1;}94.02985074626866%{stroke-opacity:1;}100%{stroke-opacity:0;}}</style></svg>
