<?xml version="1.0" encoding="UTF-8"?>
<!DOCTYPE svg PUBLIC "-//W3C//DTD SVG 1.1//EN" "http://www.w3.org/Graphics/SVG/1.1/DTD/svg11.dtd">
<svg version="1.1" xmlns="http://www.w3.org/2000/svg" xmlns:xlink="http://www.w3.org/1999/xlink" x="0" y="0" width="2000" height="2000" viewBox="0, 0, 2000, 2000">
  <defs>
    <linearGradient id="Gradient_1" gradientUnits="userSpaceOnUse" x1="-140.545" y1="487.058" x2="1790.859" y2="1755.686">
      <stop offset="0" stop-color="#5FF3A0"/>
      <stop offset="0.801" stop-color="#2CB7F0"/>
      <stop offset="1" stop-color="#00B5FF"/>
    </linearGradient>
    <linearGradient id="Gradient_2" gradientUnits="userSpaceOnUse" x1="-83.518" y1="512.705" x2="1751.316" y2="1717.901">
      <stop offset="0" stop-color="#5EF3A0" stop-opacity="0.205"/>
      <stop offset="0.801" stop-color="#2BB7F0" stop-opacity="0.197"/>
      <stop offset="1" stop-color="#00B5FF" stop-opacity="0.202"/>
    </linearGradient>
  </defs>
  <g id="Livello_1">
    <path d="M52.486,0 L1947.514,0 C1976.501,0 2000,20.491 2000,45.768 L2000,1954.232 C2000,1979.509 1976.501,2000 1947.514,2000 L52.486,2000 C23.499,2000 0,1979.509 0,1954.232 L0,45.768 C0,20.491 23.499,0 52.486,0 z" fill="url(#Gradient_1)"/>
    <text transform="matrix(1, 0, 0, 1, 995.854, 735.136)"/>
    <text transform="matrix(1, 0, 0, 1, 1026.439, 928.428)"/>
    <text transform="matrix(1, 0, 0, 1, 1030.586, 928.428)"/>
    <path d="M1922.605,50 C1937.735,50 1950,59.765 1950,71.811 L1950,1928.189 C1950,1940.235 1937.735,1950 1922.605,1950 L77.395,1950 C62.265,1950 50,1940.235 50,1928.189 L50,71.811 C50,59.765 62.265,50 77.395,50 L1922.605,50 z M1531.145,687.792 L1370.735,731.932 L1370.735,830.977 L1300.757,830.977 L1300.757,951.554 L1370.735,951.554 L1370.735,1166.87 C1370.735,1241.154 1385.807,1291.753 1415.951,1322.974 C1442.866,1349.888 1487.005,1368.19 1539.758,1368.19 C1584.974,1368.19 1624.807,1361.73 1645.262,1354.194 L1644.186,1230.388 C1629.114,1233.618 1618.348,1234.694 1595.74,1234.694 C1547.294,1234.694 1531.145,1205.626 1531.145,1142.108 L1531.145,951.554 L1648.492,951.554 L1648.492,830.977 L1531.145,830.977 L1531.145,687.792 z M526.698,631.81 L351.215,631.81 L523.468,1357.424 L703.256,1357.424 L772.157,1046.293 C789.383,972.009 801.225,903.108 814.144,821.288 L816.297,821.288 C824.91,904.185 836.752,972.009 850.748,1045.216 L912.113,1357.424 L1089.748,1357.424 L1277.073,631.81 L1110.203,631.81 L1050.991,927.869 C1035.919,1015.072 1019.771,1100.122 1009.005,1180.865 L1006.852,1180.865 C996.086,1100.122 984.243,1022.608 968.095,937.558 L909.959,631.81 L735.554,631.81 L674.189,927.869 C655.887,1018.302 638.662,1105.505 626.819,1185.172 L624.666,1185.172 C612.824,1110.888 597.752,1017.225 581.603,930.022 L526.698,631.81 z" fill="#FFFFFF"/>
    <path d="M1922.605,50 C1937.735,50 1950,59.765 1950,71.811 L1950,1928.189 C1950,1940.235 1937.735,1950 1922.605,1950 L77.395,1950 C62.265,1950 50,1940.235 50,1928.189 L50,71.811 C50,59.765 62.265,50 77.395,50 L1922.605,50 z M1531.291,687.792 L1370.881,731.932 L1370.881,830.977 L1300.904,830.977 L1300.904,951.554 L1370.881,951.554 L1370.881,1166.87 C1370.881,1241.154 1385.953,1291.753 1416.098,1322.974 C1443.012,1349.888 1487.152,1368.19 1539.904,1368.19 C1585.12,1368.19 1624.954,1361.73 1645.409,1354.194 L1644.332,1230.388 C1629.26,1233.618 1618.494,1234.694 1595.886,1234.694 C1547.44,1234.694 1531.292,1205.626 1531.291,1142.108 L1531.291,951.554 L1648.638,951.554 L1648.638,830.977 L1531.291,830.977 L1531.291,687.792 z M526.844,631.81 L351.362,631.81 L523.614,1357.424 L703.403,1357.424 L772.304,1046.293 C789.529,972.009 801.371,903.108 814.29,821.288 L816.443,821.288 C825.056,904.185 836.898,972.009 850.894,1045.216 L912.259,1357.424 L1089.894,1357.424 L1277.219,631.81 L1110.349,631.81 L1051.138,927.869 C1036.065,1015.072 1019.917,1100.122 1009.151,1180.865 L1006.998,1180.865 C996.232,1100.122 984.39,1022.608 968.241,937.558 L910.106,631.81 L735.7,631.81 L674.335,927.869 C656.033,1018.302 638.808,1105.505 626.966,1185.172 L624.812,1185.172 C612.97,1110.888 597.898,1017.225 581.749,930.022 L526.844,631.81 z" fill="url(#Gradient_2)"/>
  </g>
</svg>
